<svg width="24" height="24" viewBox="0 0 60 60" fill="none" xmlns="http://www.w3.org/2000/svg">
  <g clip-path="url(#clip0_33792_59973)">
    <path d="M60.0001 2.25584C60.0001 1.07225 59.0397 0.11377 57.8571 0.11377H36.1953V8.74486C36.7327 8.4451 37.3514 8.27518 38.0095 8.27518C40.0747 8.27518 41.75 9.94943 41.75 12.0162C41.75 14.0809 40.0756 15.7561 38.0095 15.7561C37.3514 15.7561 36.7327 15.5852 36.1953 15.2874V23.9176H44.8264C44.5277 24.455 44.3567 25.0735 44.3567 25.7312C44.3567 27.7978 46.0311 29.4722 48.0977 29.4722C50.1634 29.4722 51.8376 27.7978 51.8376 25.7312C51.8376 25.0735 51.6668 24.455 51.369 23.9176H60.0001V2.25584Z" fill="black" />
    <path d="M50.3456 32.2701H39.4713C39.0905 32.2701 38.7382 32.4715 38.5454 32.7979L38.556 32.7799L38.5436 32.7999C38.4452 32.9671 38.3955 33.156 38.3955 33.344C38.3955 33.5235 38.4414 33.7047 38.5311 33.8672L39.2166 35.1014C39.3702 35.3791 39.4455 35.6713 39.4466 35.99C39.4457 36.4826 39.2566 36.9369 38.9092 37.2863C38.5598 37.6338 38.1046 37.8228 37.6129 37.8247C37.1203 37.8227 36.665 37.6338 36.3146 37.2863L36.3161 37.2883C35.9675 36.937 35.7791 36.4817 35.7782 35.9901C35.7791 35.6722 35.8545 35.3792 36.0076 35.1006L36.6935 33.8673C36.7838 33.7049 36.8291 33.5246 36.8291 33.3442C36.8291 33.1561 36.7794 32.9672 36.6796 32.7981C36.4863 32.4708 36.1341 32.2703 35.7538 32.2703H27.6172V27.9128C29.0877 27.8898 30.4766 27.3104 31.517 26.268C32.5822 25.2056 33.1723 23.7805 33.1712 22.2752C33.1721 20.7679 32.5818 19.3428 31.517 18.2813C30.4774 17.2388 29.0882 16.6604 27.6172 16.6376V9.54115C27.6168 8.94748 27.1356 8.46631 26.5419 8.46631H4.04859C2.97 8.46549 1.94625 8.8883 1.18547 9.65096C0.429963 10.4071 0.000939052 11.4446 1.55227e-06 12.5156V55.8382C-0.000935948 56.9158 0.422814 57.9391 1.18547 58.7008C1.94156 59.4559 2.97762 59.8854 4.04859 59.8864H47.3759C48.444 59.8855 49.4807 59.4559 50.2357 58.7008C50.9985 57.9391 51.4213 56.9168 51.4203 55.8382V33.345C51.4205 32.7513 50.9393 32.2701 50.3456 32.2701ZM3.32461 12.5156C3.32461 12.2674 3.44016 12.0985 3.53461 12.004C3.63246 11.9066 3.80086 11.7901 4.04859 11.7901H24.2924V20.4155C24.2924 20.6236 24.4027 20.8154 24.5816 20.9213C24.6732 20.9748 24.7758 21.0016 24.8789 21.0016C24.9772 21.0016 25.0751 20.9777 25.1639 20.9281L26.3977 20.2427C26.7456 20.0498 27.1246 19.9515 27.5236 19.9515C28.1435 19.9515 28.7272 20.193 29.1659 20.6312C29.605 21.0712 29.8465 21.6554 29.8465 22.275C29.8465 22.8944 29.605 23.4778 29.1668 23.9168C28.7272 24.3559 28.1435 24.5974 27.5236 24.5974C27.1241 24.5974 26.7456 24.4991 26.3981 24.3062L25.1634 23.6208C25.0752 23.5712 24.9769 23.5473 24.879 23.5473C24.7759 23.5473 24.6732 23.574 24.5817 23.6285C24.4028 23.7335 24.2925 23.9253 24.2925 24.1335V32.7588H18.9517C18.9622 32.626 18.9674 32.4935 18.9674 32.3627C18.9674 30.9834 18.4304 29.688 17.4564 28.7154C16.4832 27.7407 15.1879 27.2044 13.8086 27.2044C12.4297 27.2044 11.1345 27.7408 10.1617 28.7144C9.18668 29.6871 8.64973 30.9834 8.6502 32.3618C8.6502 32.4935 8.65535 32.6253 8.6659 32.7589H3.32461V12.5156ZM24.2925 56.5626H4.04859C3.80086 56.5626 3.63246 56.4462 3.53695 56.3517C3.44016 56.2543 3.32461 56.0853 3.32461 55.8382V35.593H11.9495C12.1572 35.593 12.3495 35.4832 12.4549 35.3047C12.5604 35.1252 12.5633 34.9037 12.4622 34.7224L11.7773 33.4882C11.584 33.1397 11.4861 32.7608 11.4857 32.3627C11.4861 31.7431 11.7282 31.1591 12.1654 30.7199C12.6057 30.2818 13.1896 30.0392 13.8086 30.0392C14.4275 30.0392 15.0114 30.2818 15.4504 30.7189C15.889 31.159 16.131 31.7431 16.1314 32.3617C16.131 32.7616 16.0325 33.1406 15.8412 33.4871L15.1548 34.7213C15.0536 34.9037 15.0566 35.1252 15.1621 35.3037C15.2675 35.4831 15.46 35.5929 15.6675 35.5929H24.2924V40.9355C24.1596 40.925 24.0275 40.9202 23.8968 40.9202C22.517 40.9202 21.2216 41.4567 20.2499 42.4303C19.2744 43.4039 18.7379 44.6993 18.7389 46.0776C18.7379 47.456 19.2744 48.7523 20.2491 49.725C21.2217 50.6996 22.5171 51.236 23.8969 51.236C24.0286 51.236 24.1608 51.2312 24.2925 51.2208V56.5626ZM48.0966 55.8382C48.0966 56.0853 47.9802 56.2534 47.8847 56.3498C47.7873 56.4463 47.6193 56.5628 47.3721 56.5628H27.1284V47.9374C27.1284 47.7293 27.0188 47.5374 26.8392 47.4324C26.7476 47.3779 26.6449 47.3513 26.5419 47.3513C26.4441 47.3513 26.3457 47.3753 26.2574 47.4248L25.0218 48.1103C24.6748 48.303 24.2963 48.4014 23.8968 48.4014C23.2778 48.4014 22.6939 48.159 22.255 47.7217C21.8163 47.2826 21.5743 46.6984 21.5739 46.0788C21.5743 45.4584 21.8164 44.8752 22.2545 44.4361C22.6932 43.9979 23.2768 43.7555 23.8969 43.7545C24.2936 43.7545 24.6724 43.8528 25.0219 44.0456L26.257 44.732C26.3459 44.7817 26.4436 44.8056 26.542 44.8056C26.645 44.8056 26.7477 44.7787 26.8393 44.7254C27.0183 44.6195 27.1286 44.4275 27.1286 44.2194V35.5931H32.4697C32.4593 35.7258 32.454 35.8585 32.454 35.9901C32.4536 37.3676 32.99 38.663 33.9641 39.6365C34.9377 40.6121 36.2336 41.1486 37.6124 41.1486C38.9912 41.1486 40.2866 40.6121 41.2603 39.6376C42.2348 38.6649 42.7704 37.3696 42.7704 35.9903C42.7704 35.8585 42.7656 35.7268 42.7552 35.5932H48.0968V55.8382H48.0966Z" fill="black" />
  </g>
  <defs>
    <clipPath id="clip0_33792_59973">
      <rect width="60" height="60" fill="white" />
    </clipPath>
  </defs>
</svg>
