<svg width="129" height="64" viewBox="0 0 129 64" fill="none" xmlns="http://www.w3.org/2000/svg">
<g clip-path="url(#clip0_33883_28811)">
<path d="M59.0599 60.9528C59.0599 61.0615 58.9635 61.1571 58.8537 61.1571H57.9857C57.8758 61.1571 57.7774 61.0615 57.7774 60.9528V55.2385H56.8826C56.7721 55.2385 56.6758 55.143 56.6758 55.0322V54.4837C56.6758 54.3735 56.7721 54.2774 56.8826 54.2774H57.7774V53.4946C57.7774 52.6844 57.9439 52.2453 58.3839 51.9022C58.7564 51.5987 59.2666 51.4359 59.7764 51.4359C60.3416 51.4359 60.6997 51.572 60.6997 51.8062V52.3687C60.6997 52.4936 60.6448 52.5744 60.5611 52.5744C60.5213 52.5744 60.4657 52.561 60.4114 52.533L60.2866 52.4776C60.1897 52.4382 60.0241 52.3954 59.8855 52.3954C59.3221 52.3954 59.0599 52.7118 59.0599 53.4119L59.075 54.2774H60.4114C60.5213 54.2774 60.6175 54.3735 60.6175 54.4837V55.0602C60.6175 55.1843 60.5481 55.2385 60.4114 55.2385H59.0599V60.9528ZM64.1328 54.1685C66.2147 54.1685 67.4546 55.5133 67.4546 57.7642C67.4546 60.0044 66.2001 61.3906 64.1734 61.3906C62.1064 61.3906 60.8262 60.0044 60.8262 57.7802C60.8262 55.54 62.0809 54.1685 64.1328 54.1685ZM62.7283 59.853C63.031 60.2248 63.5396 60.4303 64.1465 60.4303C65.4555 60.4303 66.1033 59.5514 66.1033 57.7642C66.1033 55.9818 65.4555 55.1156 64.1328 55.1156C62.8114 55.1156 62.1757 55.9659 62.1757 57.7929C62.1757 58.81 62.3287 59.3732 62.7283 59.853ZM71.5008 54.1685C73.5819 54.1685 74.8228 55.5133 74.8228 57.7642C74.8228 60.0044 73.5687 61.3906 71.5425 61.3906C69.4763 61.3906 68.1954 60.0044 68.1954 57.7802C68.1954 55.54 69.4481 54.1685 71.5008 54.1685ZM70.0961 59.853C70.3982 60.2248 70.9088 60.4303 71.5169 60.4303C72.8241 60.4303 73.472 59.5514 73.472 57.7642C73.472 55.9818 72.8241 55.1156 71.5008 55.1156C70.1785 55.1156 69.5444 55.9659 69.5444 57.7929C69.5444 58.81 69.6969 59.3732 70.0961 59.853ZM80.6881 60.842C80.5915 60.842 80.5091 60.856 80.4144 60.9108L80.2884 60.9661C79.8754 61.1729 79.3933 61.2678 78.8685 61.2678C76.8575 61.2678 75.5617 59.8931 75.5617 57.7642C75.5617 55.6509 76.9399 54.1685 78.8836 54.1685C79.3658 54.1685 79.8754 54.2774 80.1643 54.4697L80.3026 54.5663C80.3992 54.6211 80.4267 54.6357 80.5375 54.6211H80.5641V51.7507C80.5641 51.6407 80.6607 51.544 80.7715 51.544H81.6392C81.7623 51.544 81.8457 51.6407 81.8457 51.7507V60.9534C81.8457 61.0622 81.75 61.1571 81.6392 61.1571H80.9212C80.7999 61.1571 80.7024 61.0622 80.7024 60.9241V60.842H80.6881ZM80.26 55.3758C79.9843 55.211 79.5998 55.1289 79.1716 55.1289C78.4706 55.1289 77.8928 55.3631 77.4921 55.8289C77.0649 56.3108 76.9134 56.8174 76.9134 57.807C76.9134 59.3732 77.7526 60.3067 79.1574 60.3067C79.433 60.3067 79.7087 60.2654 79.9455 60.1972C80.4144 60.0458 80.5641 59.8683 80.5641 59.4692V56.0078C80.5641 55.6775 80.4816 55.5133 80.26 55.3758ZM84.1683 59.3999C84.856 59.3999 85.1459 59.6882 85.1459 60.3621C85.1459 60.9929 84.8418 61.2685 84.139 61.2685C83.4645 61.2685 83.1747 60.9802 83.1747 60.3201C83.1747 59.6882 83.4929 59.3999 84.1683 59.3999ZM90.4666 60.7867C89.9569 61.0482 89.489 61.1571 88.9794 61.1571C87.0082 61.1571 85.6972 59.7849 85.6972 57.7249C85.6972 55.6234 87.1048 54.1685 89.129 54.1685C89.543 54.1685 89.9295 54.236 90.2316 54.3608C90.315 54.4015 90.44 54.4697 90.5897 54.5664C90.674 54.6071 90.6996 54.6211 90.782 54.6211L90.8388 54.6071V54.511C90.8388 54.3468 90.908 54.2774 91.0453 54.2774H91.7766C91.9007 54.2774 91.9831 54.3735 91.9831 54.4837V61.3092C91.9831 63.0663 90.8388 64.0005 88.717 64.0005C87.9317 64.0005 87.0214 63.8491 86.4152 63.6023C86.113 63.4794 86.0439 63.4099 86.0439 63.2172V62.6412C86.0439 62.5037 86.113 62.4076 86.2219 62.4076C86.2778 62.4076 86.346 62.4344 86.401 62.4623L86.5819 62.5591C87.1332 62.8468 87.9592 63.0397 88.6469 63.0397C89.2825 63.0397 89.8461 62.9016 90.2184 62.6558C90.5499 62.4217 90.6996 62.0512 90.6996 61.3779V60.7199C90.6048 60.7199 90.5897 60.7314 90.4666 60.7867ZM90.4523 55.4313C90.1776 55.2385 89.7485 55.129 89.2673 55.129C87.8626 55.129 87.0479 56.0638 87.0479 57.6841C87.0479 59.2077 87.9024 60.1973 89.2408 60.1973C89.6548 60.1973 90.0952 60.0867 90.3993 59.9351C90.6314 59.8116 90.6996 59.6883 90.6996 59.4146V55.9257C90.6996 55.6509 90.6588 55.5687 90.4523 55.4313ZM96.3499 54.1685C98.431 54.1685 99.6709 55.5133 99.6709 57.7642C99.6709 60.0044 98.4168 61.3906 96.3916 61.3906C94.3247 61.3906 93.0431 60.0044 93.0431 57.7802C93.0431 55.54 94.2963 54.1685 96.3499 54.1685ZM94.9442 59.853C95.2463 60.2248 95.7569 60.4303 96.3622 60.4303C97.6732 60.4303 98.3202 59.5514 98.3202 57.7642C98.3202 55.9818 97.6732 55.1156 96.3499 55.1156C95.0275 55.1156 94.3919 55.9659 94.3919 57.7929C94.3919 58.81 94.5435 59.3732 94.9442 59.853ZM105.01 54.4148C105.035 54.3327 105.118 54.2774 105.215 54.2774H105.919C106.07 54.2774 106.167 54.3327 106.167 54.4555C106.167 54.483 106.139 54.5523 106.111 54.6484L104.016 60.6224C103.961 60.7732 103.893 60.9661 103.85 61.0622C103.754 61.227 103.658 61.2677 103.342 61.2677H102.763C102.378 61.2677 102.281 61.1997 102.156 60.8553L102.087 60.6498L99.9807 54.6484C99.9513 54.5803 99.939 54.5244 99.939 54.4697C99.939 54.3327 100.035 54.2774 100.255 54.2774H101.125C101.22 54.2774 101.288 54.3327 101.317 54.4148L103.162 60.0185L105.01 54.4148ZM106.957 59.3999C107.648 59.3999 107.937 59.6882 107.937 60.3621C107.937 60.9929 107.632 61.2685 106.931 61.2685C106.253 61.2685 105.965 60.9802 105.965 60.3201C105.965 59.6882 106.282 59.3999 106.957 59.3999ZM113.129 60.8974L112.731 61.0488C112.275 61.2124 111.904 61.2677 111.407 61.2677C109.919 61.2677 109.023 60.4722 109.023 59.1256V54.4836C109.023 54.3735 109.119 54.2774 109.23 54.2774H110.111C110.221 54.2774 110.318 54.3735 110.318 54.4836V58.7272C110.318 59.3592 110.455 59.7709 110.759 59.9777C111.049 60.1972 111.448 60.3067 111.89 60.3067C112.15 60.3067 112.454 60.2654 112.757 60.1833C113.253 60.0458 113.407 59.8809 113.407 59.5094V54.4836C113.407 54.3735 113.501 54.2774 113.612 54.2774H114.494C114.601 54.2774 114.7 54.3735 114.7 54.4836V60.9533C114.7 61.0622 114.601 61.1571 114.494 61.1571H113.749C113.626 61.1571 113.542 61.0749 113.542 60.938V60.828C113.375 60.828 113.295 60.8421 113.129 60.8974ZM117.657 56.9968C117.699 56.9968 117.755 56.9561 117.811 56.9146L120.29 54.4148C120.401 54.292 120.427 54.2774 120.565 54.2774H121.378C121.517 54.2774 121.599 54.3473 121.599 54.4421C121.599 54.5244 121.557 54.6064 121.461 54.7031L118.829 57.3131L121.543 60.7312C121.64 60.8427 121.668 60.9107 121.668 60.9802C121.668 61.1016 121.584 61.1577 121.42 61.1577H120.441C120.263 61.1577 120.181 61.1163 120.056 60.9376L117.863 58.0133C117.781 57.8897 117.755 57.8757 117.646 57.8757H117.604V60.9528C117.604 61.0615 117.52 61.1577 117.396 61.1577H116.459C116.348 61.1577 116.252 61.0615 116.252 60.9528V51.7501C116.252 51.6406 116.348 51.544 116.459 51.544H117.396C117.52 51.544 117.604 51.6406 117.604 51.7501V57.0108L117.657 56.9968Z" fill="#2AA237"/>
<path d="M11.9467 40.6205L11.9049 15.2747C11.9049 14.2621 12.5051 13.4386 13.2487 13.4341C13.9286 13.4341 14.4884 14.1175 14.5845 15.0061L14.6113 35.5337C14.6159 36.5507 15.2214 37.3735 15.9584 37.3729C16.6748 37.3735 17.2561 36.6137 17.3018 35.6553V35.6323C17.3018 35.598 17.3047 35.5643 17.3047 35.5286L17.2736 15.1696C17.3072 14.1998 17.893 13.4266 18.6102 13.4251C19.2229 13.4266 19.7436 13.991 19.9048 14.763L19.8977 10.5244H19.879C19.8684 6.53592 22.3708 1.90488 25.8936 0.00772511C19.4824 -0.126619 13.023 2.14788 7.9843 6.87712C-2.22632 16.4578 -2.70762 32.4675 6.90217 42.6437C9.37921 45.2663 12.2892 47.2418 15.4213 48.5706C13.6286 46.5494 12.6137 44.1266 12.0888 41.9252C12.0298 41.67 11.9479 40.9177 11.9467 40.6205ZM38.6752 10.163L38.7189 35.5057C38.7195 36.522 38.1181 37.343 37.3773 37.3449C36.6991 37.3469 36.1439 36.6628 36.044 35.7762L36.0111 15.2486C36.0074 14.2297 35.4032 13.4118 34.6616 13.4062C33.9508 13.4118 33.3681 14.1737 33.3225 15.1308V15.1487C33.3225 15.1837 33.3187 15.2193 33.3225 15.2518L33.3532 35.6158C33.3172 36.5851 32.7293 37.3552 32.0129 37.3577C31.3967 37.359 30.8798 36.7912 30.7171 36.0212L30.7445 40.214L30.7521 40.2554C30.7539 44.1177 28.4125 48.586 25.063 50.5933C31.4153 50.6716 37.7974 48.3982 42.7925 43.7156C52.996 34.1355 53.4753 18.1252 43.8674 7.95083C41.252 5.18559 38.1579 3.13758 34.8337 1.81254C36.8271 3.86245 38.2147 6.76071 38.5403 9.34837C38.624 9.59148 38.6752 9.86517 38.6752 10.163Z" fill="#A9C47E"/>
<path d="M25.8944 0.00781907C22.3712 1.90497 19.8692 6.53611 19.8731 10.5271L19.8815 10.5456L19.9055 14.7632L19.939 35.5287C19.9422 36.5437 20.5491 37.3661 21.2887 37.3623C21.8176 37.3623 22.2707 36.9448 22.4885 36.3349C22.4977 36.3274 22.5002 36.321 22.5002 36.3122C22.5264 36.2281 22.5538 36.1397 22.5721 36.0474C22.5721 36.0213 22.5839 35.999 22.5891 35.9742C22.6022 35.8958 22.6081 35.8157 22.6165 35.7318C22.62 35.6643 22.6309 35.6 22.6289 35.5339L22.6145 15.5478L22.62 15.1462C22.6507 14.4455 22.9769 13.8537 23.42 13.587C23.4344 13.5806 23.4411 13.5699 23.4488 13.564C23.4674 13.5577 23.4718 13.5558 23.4868 13.5463C23.6346 13.4641 23.8026 13.4202 23.9765 13.4177C24.6068 13.4177 25.1393 14.0224 25.2856 14.8306L25.3 14.9336C25.3117 15.0386 25.3011 15.1564 25.3098 15.2659L25.3424 35.8405C25.451 36.7004 26.0036 37.3591 26.6646 37.3532C26.8366 37.3553 26.9988 37.305 27.1504 37.2279C27.1584 37.2279 27.1661 37.2279 27.1715 37.2261C27.1852 37.214 27.1935 37.2019 27.2092 37.191C27.6721 36.9039 27.9934 36.2631 27.9934 35.5237L27.986 15.4123L27.9977 15.1359C27.9977 15.1086 28.0045 15.0775 28.0083 15.0488C28.0097 14.9686 28.0233 14.8859 28.0371 14.8109C28.0395 14.786 28.0482 14.7632 28.0527 14.7376C28.0693 14.6472 28.0946 14.5524 28.1242 14.4646L28.1325 14.4474C28.3483 13.8314 28.8034 13.4076 29.3365 13.4108C30.0798 13.4076 30.6826 14.2337 30.6826 15.2487L30.7166 36.0245C30.8801 36.7913 31.3967 37.3553 32.0133 37.3578C32.73 37.3553 33.3178 36.5851 33.3529 35.6158L33.3229 15.2544C33.3191 15.2194 33.3229 15.1838 33.3229 15.1481V15.1309C33.3689 14.1706 33.9512 13.4119 34.6615 13.4063C35.4035 13.4119 36.0076 14.2298 36.0118 15.2487L36.0444 35.7763C36.1437 36.6623 36.6994 37.3495 37.3775 37.345C38.1178 37.3431 38.7192 36.522 38.7192 35.5058L38.6755 10.1606C38.6755 9.86517 38.6528 9.56296 38.6135 9.27785C38.2244 6.6984 36.8278 3.86065 34.8333 1.81264C31.974 0.672836 28.9403 0.0631428 25.8944 0.00781907Z" fill="#016F51"/>
<path d="M25.0624 50.5933C28.5827 48.6968 30.7616 44.2208 30.7569 40.2304L30.7478 40.2101L30.7236 35.9939L30.6909 15.2282C30.6871 14.2138 30.0814 13.389 29.3406 13.3942C28.813 13.3942 28.3586 13.8122 28.1421 14.4207C28.133 14.4289 28.1303 14.4366 28.1303 14.4435C28.1042 14.5275 28.0774 14.6166 28.0578 14.709C28.0578 14.7363 28.0473 14.7573 28.041 14.7821C28.0292 14.8605 28.0225 14.9399 28.0148 15.0252C28.0093 15.0927 27.9975 15.1563 28.0024 15.2238L28.0168 35.2092L28.0093 35.6101C27.9806 36.3101 27.6524 36.9021 27.2111 37.1693C27.1969 37.177 27.1875 37.1872 27.1809 37.1942C27.1646 37.1979 27.1563 37.201 27.1432 37.21C26.9953 37.2922 26.828 37.3354 26.6567 37.3392C26.0228 37.3392 25.4894 36.7339 25.3444 35.9244L25.33 35.824C25.3182 35.717 25.3278 35.5999 25.3227 35.4911L25.2879 14.917C25.1787 14.0567 24.627 13.3979 23.9644 13.4036C23.7921 13.4017 23.6305 13.4507 23.4815 13.529C23.4716 13.529 23.4645 13.529 23.4598 13.5316C23.4448 13.5423 23.4363 13.5552 23.4205 13.5659C22.9563 13.8536 22.6361 14.4932 22.6361 15.232L22.6437 35.3454L22.6319 35.6209C22.6319 35.6482 22.6266 35.6795 22.6216 35.7069C22.6197 35.7889 22.608 35.871 22.5929 35.9454C22.5916 35.9703 22.5831 35.9939 22.5778 36.0187C22.5614 36.1091 22.5351 36.2038 22.5057 36.2917L22.4981 36.3082C22.2816 36.9249 21.8256 37.3494 21.2942 37.3462C20.5508 37.3494 19.9471 36.524 19.9471 35.509L19.912 14.7324C19.7504 13.9656 19.2333 13.4017 18.6167 13.3985C17.9005 13.4017 17.3122 14.1705 17.2781 15.1409L17.307 35.5032C17.3102 35.5369 17.307 35.5725 17.307 35.6082V35.6248C17.2618 36.5858 16.6784 37.3456 15.9684 37.3494C15.2271 37.3456 14.6214 36.5259 14.6168 35.509L14.5856 14.9807C14.4855 14.0941 13.9311 13.4067 13.2537 13.4118C12.5135 13.4125 11.9111 14.2336 11.9111 15.2499L11.9552 40.5965C11.9552 40.8905 11.9766 41.194 12.0178 41.4799C12.4044 44.0591 13.4282 46.5222 15.4218 48.5707C18.2818 49.71 22.0155 50.5379 25.0624 50.5933Z" fill="white"/>
<path d="M56.7691 45.9504H57.8734C58.0391 45.9504 58.1311 45.8954 58.1864 45.7303L59.4563 41.8962C59.4932 41.7494 59.5853 41.6944 59.7509 41.6944H63.4321C63.5794 41.6944 63.653 41.7311 63.7082 41.8595L64.9598 45.7303C65.0151 45.8771 65.0888 45.9504 65.3096 45.9504H66.598C66.7821 45.9504 66.8556 45.8587 66.8556 45.7486C66.8556 45.6935 66.8005 45.5468 66.7453 45.3634L63.0088 34.0812C62.8984 33.7877 62.7695 33.6593 62.4935 33.6593H60.9105C60.6344 33.6593 60.5056 33.7693 60.4135 34.0628L56.5298 45.4551C56.493 45.5835 56.4746 45.6569 56.4746 45.7486C56.4746 45.8771 56.5666 45.9504 56.7691 45.9504ZM60.1374 40.3735C60.0086 40.3735 59.9717 40.3184 59.9717 40.2451C59.9717 40.1901 59.9902 40.1167 60.027 40.0066L61.4442 35.5121C61.4995 35.347 61.5179 35.2919 61.6099 35.2919C61.702 35.2919 61.7204 35.3654 61.7572 35.4938L63.1745 39.9516C63.2113 40.0617 63.2297 40.1717 63.2297 40.2451C63.2297 40.3369 63.1745 40.3735 63.0456 40.3735H60.1374ZM70.9421 50.0229C72.3771 50.0229 73.8501 49.7111 74.66 48.7572C75.2302 48.0967 75.3221 47.2529 75.3221 45.8954V36.9981C75.3221 36.8146 75.2672 36.7046 75.0645 36.7046H73.96C73.7942 36.7046 73.7393 36.7962 73.7393 36.9247C73.7213 37.0531 73.6843 37.0897 73.5925 37.0897C73.242 37.0897 72.7087 36.5027 71.2357 36.5027C68.788 36.5027 67.0395 38.1537 67.0395 41.3275C67.0395 44.1893 68.4752 45.9504 71.0889 45.9504C72.6168 45.9504 73.2609 45.345 73.5006 45.345C73.6294 45.345 73.6474 45.4367 73.6474 45.6019V46.3723C73.6474 47.1245 73.4816 47.7483 72.9663 48.1151C72.4141 48.5186 71.6781 48.6654 70.8492 48.6654C68.9353 48.6654 68.0518 47.9316 67.7206 47.9316C67.5364 47.9316 67.4628 48.0601 67.4628 48.2618V48.9406C67.4628 49.2525 67.5733 49.3809 68.0518 49.5644C68.7145 49.8028 69.7268 50.0229 70.9421 50.0229ZM71.5862 44.7029C69.69 44.7029 68.8617 43.3821 68.8617 41.2908C68.8617 38.8142 70.0033 37.7501 71.6961 37.7501C72.8375 37.7501 73.6474 38.2455 73.6474 39.0344V43.3088C73.6474 44.2443 72.6907 44.7029 71.5862 44.7029ZM81.4953 46.0605C82.6917 46.0605 83.7782 45.7853 84.2196 45.5651C84.4592 45.4367 84.4962 45.3083 84.4962 45.0882V44.4278C84.4962 44.2627 84.4592 44.1526 84.2935 44.1526C83.925 44.1526 83.2629 44.7579 81.6061 44.7579C80.244 44.7579 78.4584 44.2994 78.4584 41.8595C78.4584 41.566 78.4954 41.4742 78.753 41.4742H84.6619C84.9556 41.4742 85.0115 41.3641 85.0115 41.0156C85.0115 38.0621 83.5755 36.5027 80.962 36.5027C78.054 36.5027 76.6359 38.5573 76.6359 41.2908C76.6359 44.8313 78.6612 46.0605 81.4953 46.0605ZM78.753 40.2818C78.5323 40.2818 78.5134 40.2085 78.5134 40.0433C78.5134 39.2361 79.2314 37.7135 80.9431 37.7135C82.8574 37.7135 83.2629 39.2728 83.2629 40.0249C83.2629 40.2085 83.207 40.2818 83.0052 40.2818H78.753ZM86.5754 45.9504H87.6979C87.9195 45.9504 88.0294 45.8403 88.0294 45.6202V38.9243C88.0294 38.0804 89.0969 37.7869 90.1465 37.7869C91.8032 37.7869 92.1897 38.6124 92.1897 40.3735V45.6202C92.1897 45.8403 92.3185 45.9504 92.5212 45.9504H93.6248C93.8275 45.9504 93.9563 45.8403 93.9563 45.6202V40.2268C93.9563 37.7686 93.3122 36.5027 90.7726 36.5027C89.3546 36.5027 88.4718 37.1082 88.1033 37.1082C87.9745 37.1082 87.9565 37.0347 87.9565 36.943C87.9565 36.8146 87.9006 36.7046 87.7168 36.7046H86.5204C86.3177 36.7046 86.2438 36.7962 86.2438 37.0164V45.6202C86.2438 45.8587 86.3916 45.9504 86.5754 45.9504ZM99.635 46.0605C100.555 46.0605 101.439 45.8954 102.028 45.6385C102.322 45.5101 102.469 45.4 102.469 45.1248V44.4828C102.469 44.2627 102.414 44.1343 102.23 44.1343C101.954 44.1343 101.273 44.7579 99.9846 44.7579C98.1621 44.7579 97.1135 43.5105 97.1135 41.3458C97.1135 39.1077 98.1251 37.7501 100.04 37.7501C101.402 37.7501 101.936 38.4473 102.266 38.4473C102.432 38.4473 102.469 38.3556 102.469 38.1905V37.3833C102.469 37.1815 102.414 37.0897 102.12 36.943C101.549 36.6862 100.849 36.5027 99.9107 36.5027C96.763 36.5027 95.272 38.484 95.272 41.4008C95.272 44.281 96.6901 46.0605 99.635 46.0605ZM105.048 50.0229C106.373 50.0229 107.165 49.3626 107.698 47.8399L111.435 37.2732C111.509 37.0714 111.527 36.9797 111.527 36.888C111.527 36.7962 111.472 36.7046 111.324 36.7046H110.275C110.073 36.7046 109.981 36.7412 109.907 36.9247L107.643 43.8591C107.606 43.9507 107.569 44.0059 107.514 44.0059C107.44 44.0059 107.403 43.9692 107.367 43.8591L104.956 36.9247C104.901 36.7779 104.809 36.7046 104.643 36.7046H103.336C103.189 36.7046 103.133 36.7779 103.133 36.888C103.133 36.9797 103.152 37.0714 103.226 37.2549L106.41 45.7853C106.502 46.0055 106.521 46.1155 106.521 46.2439C106.521 46.4824 106.336 46.9226 106.023 47.7298C105.748 48.4086 105.361 48.5554 104.938 48.5554C104.698 48.5554 104.606 48.537 104.514 48.537C104.349 48.537 104.257 48.6287 104.257 48.8489V49.6378C104.257 49.9129 104.403 50.0229 105.048 50.0229ZM60.0638 31.552C62.7327 31.552 64.2789 30.3962 64.2789 28.1765C64.2789 26.6539 63.5058 25.6999 62.1621 24.9294L60.3767 23.8471C59.4563 23.2784 58.9778 22.8014 58.9778 21.9209C58.9778 20.7651 59.8245 20.2331 61.0394 20.2331C62.5486 20.2331 63.2481 20.9668 63.653 20.9668C63.8554 20.9668 63.9108 20.8752 63.9108 20.6733V19.9396C63.9108 19.6828 63.8554 19.5543 63.5426 19.4076C62.8247 19.0773 61.9044 18.9122 61.0025 18.9122C58.7385 18.9122 57.1924 19.9396 57.1924 22.0492C57.1924 23.5352 57.9839 24.4708 59.0699 25.1128L61.1497 26.3787C62.0332 26.9474 62.5119 27.516 62.5119 28.3049C62.5119 29.4239 61.6284 30.1761 60.027 30.1761C58.2416 30.1761 57.6158 29.3506 57.2293 29.3506C57.0084 29.3506 56.9532 29.4973 56.9532 29.6624V30.4513C56.9532 30.8182 57.0636 30.9282 57.3765 31.0566C57.9655 31.3318 58.941 31.552 60.0638 31.552ZM68.5582 31.4785C69.589 31.4785 70.62 31.2033 70.62 30.6898V29.8826C70.62 29.7174 70.5461 29.6441 70.4173 29.6441C70.1776 29.6441 69.865 30.1027 68.9632 30.1027C68.0797 30.1027 67.6564 29.6624 67.6564 28.5617V23.6269C67.6564 23.4618 67.7483 23.4068 67.8588 23.4068H70.3065C70.5092 23.4068 70.62 23.2967 70.62 23.0949V22.4344C70.62 22.2327 70.5092 22.1226 70.3065 22.1226H67.8772C67.7483 22.1226 67.6564 22.0676 67.6564 21.9025V19.9396C67.6564 19.7194 67.5827 19.6093 67.3434 19.6093H66.2022C65.9813 19.6093 65.8894 19.7194 65.8894 19.9396V21.9025C65.8894 22.0676 65.8525 22.1226 65.7237 22.1226H64.4536C64.2512 22.1226 64.1408 22.2144 64.1408 22.4344V23.0949C64.1408 23.3151 64.2512 23.4068 64.4536 23.4068H65.7237C65.8525 23.4068 65.8894 23.4802 65.8894 23.6269V28.947C65.8894 30.6163 66.7176 31.4785 68.5582 31.4785ZM74.2053 31.4785C75.7332 31.4785 76.5431 30.9282 76.8188 30.9282C76.9296 30.9282 76.9845 31.0016 76.9845 31.1484C76.9845 31.2951 77.0584 31.3685 77.2602 31.3685H78.2358C78.4755 31.3685 78.5854 31.2401 78.5854 31.0383V24.7092C78.5854 22.8014 77.6287 21.9209 75.2179 21.9209C73.7819 21.9209 72.6035 22.251 72.1621 22.4896C71.8126 22.6546 71.7936 22.8014 71.7936 23.0032V23.5536C71.7936 23.7553 71.8675 23.8287 72.0333 23.8287C72.4567 23.8287 73.5053 23.1683 75.181 23.1683C76.8188 23.1683 76.9106 23.8837 76.9106 24.4892V24.7092C76.9106 25.0395 76.7449 25.1495 76.2855 25.2779L74.2053 25.8834C72.7324 26.287 71.1865 26.8923 71.1865 28.9102C71.1865 30.7264 72.4018 31.4785 74.2053 31.4785ZM74.7386 30.3412C73.4324 30.3412 72.8612 29.6807 72.8612 28.8186C72.8612 27.5711 73.9287 27.2225 74.9963 26.9107C76.0089 26.6171 76.6161 26.4704 76.7638 26.4704C76.8737 26.4704 76.9106 26.5254 76.9106 26.7089V29.0754C76.9106 29.534 76.8377 29.7908 76.4143 29.9926C75.935 30.2127 75.3647 30.3412 74.7386 30.3412ZM80.782 31.3685H81.9045C82.1252 31.3685 82.2361 31.2584 82.2361 31.0383V24.3423C82.2361 23.4985 83.3036 23.205 84.3522 23.205C86.0089 23.205 86.3954 24.0305 86.3954 25.7916V31.0383C86.3954 31.2584 86.5242 31.3685 86.7269 31.3685H87.8314C88.0341 31.3685 88.163 31.2584 88.163 31.0383V25.6448C88.163 23.1867 87.5179 21.9209 84.9783 21.9209C83.5613 21.9209 82.6775 22.5262 82.309 22.5262C82.1802 22.5262 82.1622 22.4528 82.1622 22.3611C82.1622 22.2327 82.1072 22.1226 81.9225 22.1226H80.7261C80.5244 22.1226 80.4505 22.2144 80.4505 22.4344V31.0383C80.4505 31.2768 80.5973 31.3685 80.782 31.3685ZM93.62 31.4785C95.0741 31.4785 95.6074 30.9282 96.0128 30.9282C96.1416 30.9282 96.1785 31.0199 96.1785 31.1117C96.1785 31.2951 96.2704 31.3685 96.4542 31.3685H97.5217C97.7614 31.3685 97.8533 31.2584 97.8533 31.0383V18.8572C97.8533 18.6187 97.7614 18.527 97.5217 18.527H96.4172C96.1965 18.527 96.0867 18.6187 96.0867 18.8572V22.1776C96.0867 22.306 96.0677 22.3978 95.9578 22.3978C95.7002 22.3978 95.129 21.9209 93.7489 21.9209C91.2084 21.9209 89.4787 23.5719 89.4787 26.8006C89.4787 29.6991 90.9138 31.4785 93.62 31.4785ZM94.1353 30.1944C92.0741 30.1944 91.3002 28.8186 91.3002 26.8006C91.3002 24.5625 92.2759 23.1683 94.1723 23.1683C95.2029 23.1683 96.0867 23.5536 96.0867 24.324V29.002C96.0867 29.8275 95.1479 30.1944 94.1353 30.1944ZM102.127 31.4785C103.655 31.4785 104.465 30.9282 104.741 30.9282C104.852 30.9282 104.906 31.0016 104.906 31.1484C104.906 31.2951 104.98 31.3685 105.183 31.3685H106.158C106.397 31.3685 106.508 31.2401 106.508 31.0383V24.7092C106.508 22.8014 105.551 21.9209 103.14 21.9209C101.704 21.9209 100.525 22.251 100.084 22.4896C99.7345 22.6546 99.7156 22.8014 99.7156 23.0032V23.5536C99.7156 23.7553 99.7894 23.8287 99.9552 23.8287C100.379 23.8287 101.428 23.1683 103.103 23.1683C104.741 23.1683 104.833 23.8837 104.833 24.4892V24.7092C104.833 25.0395 104.667 25.1495 104.207 25.2779L102.127 25.8834C100.654 26.287 99.1084 26.8923 99.1084 28.9102C99.1084 30.7264 100.324 31.4785 102.127 31.4785ZM102.661 30.3412C101.354 30.3412 100.783 29.6807 100.783 28.8186C100.783 27.5711 101.851 27.2225 102.918 26.9107C103.931 26.6171 104.538 26.4704 104.686 26.4704C104.796 26.4704 104.833 26.5254 104.833 26.7089V29.0754C104.833 29.534 104.76 29.7908 104.336 29.9926C103.857 30.2127 103.287 30.3412 102.661 30.3412ZM108.667 31.3685H109.863C110.047 31.3685 110.158 31.2768 110.158 31.0566V25.0945C110.158 23.9755 111.005 23.4618 112.127 23.4618C112.588 23.4618 112.845 23.5168 113.103 23.5168C113.25 23.5168 113.324 23.4068 113.324 23.26V22.3795C113.324 22.1043 113.213 21.9575 112.588 21.9575C111.446 21.9575 110.728 22.7096 110.305 22.7096C110.139 22.7096 110.102 22.6363 110.102 22.4344C110.102 22.2144 110.066 22.1226 109.844 22.1226H108.648C108.446 22.1226 108.372 22.2327 108.372 22.4344V31.0566C108.372 31.2768 108.501 31.3685 108.667 31.3685ZM117.579 31.4785C119.033 31.4785 119.567 30.9282 119.971 30.9282C120.1 30.9282 120.137 31.0199 120.137 31.1117C120.137 31.2951 120.229 31.3685 120.414 31.3685H121.481C121.72 31.3685 121.813 31.2584 121.813 31.0383V18.8572C121.813 18.6187 121.72 18.527 121.481 18.527H120.377C120.156 18.527 120.045 18.6187 120.045 18.8572V22.1776C120.045 22.306 120.027 22.3978 119.916 22.3978C119.659 22.3978 119.089 21.9209 117.708 21.9209C115.168 21.9209 113.437 23.5719 113.437 26.8006C113.437 29.6991 114.873 31.4785 117.579 31.4785ZM118.094 30.1944C116.033 30.1944 115.26 28.8186 115.26 26.8006C115.26 24.5625 116.235 23.1683 118.131 23.1683C119.162 23.1683 120.045 23.5536 120.045 24.324V29.002C120.045 29.8275 119.107 30.1944 118.094 30.1944ZM125.646 31.4785C127.91 31.4785 128.996 30.5062 128.996 28.7635C128.996 27.8463 128.665 27.1308 127.34 26.3787L126.125 25.6448C125.315 25.1679 124.983 24.7459 124.983 24.1956C124.983 23.5536 125.444 23.1316 126.456 23.1316C127.69 23.1316 128.297 23.7553 128.573 23.7553C128.738 23.7553 128.794 23.6452 128.794 23.4802V22.8197C128.794 22.5445 128.738 22.4161 128.242 22.2327C127.745 22.0309 127.155 21.9209 126.364 21.9209C124.302 21.9209 123.272 22.9298 123.272 24.3791C123.272 25.4431 123.769 26.1219 124.891 26.7823L126.07 27.4794C126.99 28.0297 127.358 28.3782 127.358 29.0203C127.358 29.8275 126.751 30.2311 125.609 30.2311C124.173 30.2311 123.64 29.6074 123.291 29.6074C123.125 29.6074 123.051 29.6991 123.051 29.8826V30.598C123.051 30.9466 123.217 31.0566 123.603 31.185C124.064 31.3501 124.818 31.4785 125.646 31.4785ZM58.0332 16.7866H59.2143C59.4505 16.7866 59.5413 16.6779 59.5413 16.4606V11.5891C59.5413 11.4261 59.6141 11.3718 59.7594 11.3718H63.3026C63.5388 11.3718 63.6115 11.2631 63.6115 11.082V10.2671C63.6115 10.0498 63.5388 9.95922 63.3026 9.95922H59.7594C59.6141 9.95922 59.5413 9.88681 59.5413 9.70564V6.33721C59.5413 6.19239 59.5959 6.13801 59.7231 6.13801H64.0657C64.2838 6.13801 64.3746 6.04747 64.3746 5.84827V5.0152C64.3746 4.816 64.2838 4.70733 64.0657 4.70733H58.015C57.797 4.70733 57.7061 4.816 57.7061 5.03333V16.4606C57.7061 16.6779 57.797 16.7866 58.0332 16.7866ZM68.9842 16.8953C72.0001 16.8953 73.3272 14.9937 73.3272 12.1505C73.3272 9.2891 71.9461 7.46002 68.9842 7.46002C65.8952 7.46002 64.6233 9.47018 64.6233 12.1505C64.6233 14.9575 65.8952 16.8953 68.9842 16.8953ZM68.9842 15.6457C67.2399 15.6457 66.404 14.4504 66.404 12.1505C66.404 10.0135 67.149 8.69149 68.9842 8.69149C70.7469 8.69149 71.5464 9.95922 71.5464 12.1505C71.5464 14.4504 70.674 15.6457 68.9842 15.6457ZM78.5399 16.8953C81.5559 16.8953 82.8821 14.9937 82.8821 12.1505C82.8821 9.2891 81.501 7.46002 78.5399 7.46002C75.4509 7.46002 74.1788 9.47018 74.1788 12.1505C74.1788 14.9575 75.4509 16.8953 78.5399 16.8953ZM78.5399 15.6457C76.7951 15.6457 75.9596 14.4504 75.9596 12.1505C75.9596 10.0135 76.7041 8.69149 78.5399 8.69149C80.3018 8.69149 81.1013 9.95922 81.1013 12.1505C81.1013 14.4504 80.2298 15.6457 78.5399 15.6457ZM87.8229 16.8953C89.258 16.8953 89.7846 16.3519 90.1844 16.3519C90.3123 16.3519 90.3483 16.4425 90.3483 16.533C90.3483 16.7142 90.4392 16.7866 90.6211 16.7866H91.6744C91.9112 16.7866 92.0021 16.6779 92.0021 16.4606V4.43572C92.0021 4.20026 91.9112 4.10972 91.6744 4.10972H90.5841C90.3663 4.10972 90.2573 4.20026 90.2573 4.43572V7.7136C90.2573 7.84039 90.2393 7.93093 90.1304 7.93093C89.8756 7.93093 89.3129 7.46002 87.9498 7.46002C85.4425 7.46002 83.7346 9.0899 83.7346 12.2772C83.7346 15.1386 85.1517 16.8953 87.8229 16.8953ZM88.3316 15.6275C86.2959 15.6275 85.5334 14.2694 85.5334 12.2772C85.5334 10.0679 86.4958 8.69149 88.3676 8.69149C89.3849 8.69149 90.2573 9.07186 90.2573 9.83242V14.4504C90.2573 15.2654 89.3309 15.6275 88.3316 15.6275Z" fill="#016F51"/>
</g>
<defs>
<clipPath id="clip0_33883_28811">
<rect width="129" height="64" fill="white"/>
</clipPath>
</defs>
</svg>
