<svg width="473" height="306" viewBox="0 0 473 306" fill="none" xmlns="http://www.w3.org/2000/svg">
<rect width="473" height="305.156" fill="#CCE2D8"/>
<path d="M255.9 89.3036C260.338 78.5893 255.25 66.3059 244.536 61.8679C233.822 57.4299 221.538 62.5179 217.1 73.2322C212.662 83.9464 217.75 96.2298 228.464 100.668C239.179 105.106 251.462 100.018 255.9 89.3036Z" fill="#008938"/>
<path d="M306.775 88.5072C305.443 89.2397 304.133 89.95 302.802 90.6603C302.091 91.0377 301.403 91.3928 300.693 91.748C299.982 92.1031 299.272 92.4805 298.562 92.8134C297.763 93.213 296.942 93.5903 296.142 93.9677C295.543 94.2563 294.922 94.5448 294.322 94.8334C293.457 95.2329 292.613 95.6103 291.747 95.9876C291.192 96.2318 290.638 96.4759 290.083 96.7201C289.195 97.0975 288.307 97.4748 287.419 97.83C286.886 98.0519 286.354 98.2517 285.843 98.4737C284.933 98.8288 284.045 99.184 283.135 99.5169C282.624 99.7167 282.114 99.8943 281.603 100.094C280.693 100.427 279.783 100.738 278.873 101.049C278.363 101.226 277.852 101.381 277.364 101.559C276.454 101.848 275.544 102.158 274.634 102.425C274.123 102.58 273.612 102.735 273.124 102.869C272.214 103.135 271.304 103.401 270.394 103.646C269.883 103.779 269.395 103.912 268.885 104.045C267.974 104.289 267.064 104.511 266.154 104.733C265.644 104.844 265.133 104.955 264.645 105.088C263.735 105.288 262.825 105.488 261.915 105.688C261.404 105.799 260.916 105.887 260.405 105.976C259.495 106.154 258.585 106.331 257.675 106.487C257.187 106.576 256.676 106.642 256.188 106.731C255.256 106.886 254.346 107.02 253.413 107.153C252.947 107.219 252.481 107.264 251.993 107.33C251.038 107.441 250.106 107.574 249.151 107.663C248.73 107.708 248.286 107.73 247.864 107.774C246.887 107.863 245.888 107.952 244.912 108.018C244.601 108.018 244.312 108.041 244.002 108.063C239.03 108.374 234.035 108.374 229.063 108.063C228.752 108.063 228.464 108.041 228.153 108.018C227.176 107.952 226.178 107.863 225.201 107.774C224.779 107.73 224.335 107.708 223.913 107.663C222.981 107.574 222.027 107.441 221.094 107.33C220.628 107.264 220.14 107.219 219.674 107.153C218.764 107.02 217.832 106.886 216.921 106.731C216.433 106.642 215.923 106.576 215.434 106.487C214.524 106.331 213.614 106.154 212.704 105.976C212.193 105.887 211.683 105.776 211.172 105.688C210.262 105.51 209.352 105.31 208.442 105.088C207.932 104.977 207.421 104.866 206.933 104.733C206.023 104.511 205.113 104.289 204.203 104.045C203.692 103.912 203.182 103.779 202.693 103.646C201.783 103.401 200.873 103.135 199.963 102.869C199.452 102.713 198.942 102.58 198.454 102.425C197.543 102.136 196.633 101.848 195.723 101.559C195.213 101.381 194.702 101.226 194.192 101.049C193.282 100.738 192.372 100.427 191.462 100.094C190.951 99.9165 190.44 99.7167 189.908 99.5169C188.998 99.184 188.11 98.8288 187.2 98.4737C186.667 98.2739 186.156 98.0519 185.624 97.83C184.736 97.4748 183.848 97.0975 182.96 96.7201C182.405 96.4759 181.85 96.2318 181.295 95.9876C180.43 95.6103 179.586 95.2329 178.72 94.8334C178.121 94.5448 177.5 94.2563 176.9 93.9677C176.101 93.5903 175.28 93.1908 174.481 92.7913C173.793 92.4361 173.082 92.0809 172.372 91.7258C171.662 91.3706 170.952 90.9933 170.241 90.6381C168.909 89.95 167.6 89.2397 166.268 88.485C161.984 86.0878 156.568 87.6194 154.193 91.9034C151.796 96.1874 153.349 101.603 157.611 103.979C158.899 104.689 160.186 105.377 161.473 106.065C161.673 106.176 161.851 106.265 162.051 106.376C162.716 106.731 163.382 107.064 164.048 107.397C164.981 107.885 165.935 108.351 166.867 108.817C167.533 109.15 168.199 109.461 168.865 109.772C169.797 110.216 170.752 110.66 171.684 111.104C172.35 111.415 173.016 111.703 173.704 111.992C174.636 112.413 175.568 112.813 176.501 113.212C177.189 113.501 177.855 113.767 178.543 114.056C179.475 114.433 180.385 114.811 181.317 115.166C182.006 115.432 182.716 115.699 183.404 115.965C184.314 116.298 185.224 116.631 186.134 116.964C186.845 117.208 187.555 117.452 188.265 117.696C189.153 118.007 190.041 118.296 190.929 118.584C191.661 118.828 192.394 119.05 193.126 119.272C193.992 119.539 194.858 119.783 195.723 120.049C196.478 120.271 197.211 120.471 197.965 120.671C198.809 120.893 199.674 121.115 200.518 121.337C201.273 121.536 202.049 121.714 202.804 121.914C203.625 122.113 204.469 122.291 205.29 122.469C206.067 122.646 206.866 122.824 207.643 122.979C208.442 123.135 209.263 123.29 210.063 123.445C210.418 123.512 210.795 123.578 211.15 123.645L214.347 157.207V167.373L188.354 240.667C186.245 246.616 189.353 253.142 195.302 255.251C196.567 255.695 197.854 255.917 199.119 255.917C203.825 255.917 208.22 252.987 209.885 248.303L233.258 182.334H239.784L263.158 248.303C264.822 252.987 269.217 255.917 273.923 255.917C275.188 255.917 276.476 255.695 277.741 255.251C283.69 253.142 286.797 246.616 284.689 240.667L258.718 167.373V157.207L261.915 123.645C262.292 123.578 262.647 123.512 263.025 123.445C263.824 123.29 264.623 123.157 265.422 122.979C266.221 122.824 267.02 122.646 267.819 122.469C268.64 122.291 269.462 122.113 270.283 121.914C271.06 121.736 271.837 121.536 272.614 121.337C273.457 121.115 274.301 120.915 275.144 120.671C275.899 120.471 276.653 120.249 277.408 120.027C278.274 119.783 279.14 119.516 280.005 119.272C280.738 119.05 281.47 118.806 282.225 118.584C283.113 118.296 283.978 118.007 284.866 117.718C285.577 117.474 286.309 117.23 287.019 116.964C287.93 116.653 288.817 116.32 289.727 115.987C290.438 115.721 291.126 115.454 291.836 115.188C292.746 114.833 293.679 114.455 294.589 114.078C295.277 113.79 295.943 113.523 296.631 113.235C297.563 112.835 298.495 112.436 299.45 112.014C300.116 111.725 300.782 111.415 301.447 111.126C302.402 110.704 303.334 110.238 304.289 109.794C304.955 109.483 305.621 109.173 306.264 108.84C307.219 108.374 308.151 107.885 309.105 107.397C309.771 107.064 310.437 106.731 311.081 106.376C311.281 106.265 311.458 106.176 311.658 106.087C312.946 105.399 314.233 104.711 315.52 104.001C319.804 101.603 321.336 96.2096 318.939 91.9256C316.541 87.6416 311.148 86.11 306.864 88.5072H306.775Z" fill="#008938"/>
<path d="M236.5 11.4395C158.034 11.4395 94.4395 75.0338 94.4395 153.5C94.4395 231.966 158.034 295.561 236.5 295.561C314.966 295.561 378.561 231.966 378.561 153.5C378.561 75.0338 314.966 11.4395 236.5 11.4395ZM236.5 286.682C163.072 286.682 103.318 226.928 103.318 153.5C103.318 80.0725 163.072 20.3182 236.5 20.3182C309.928 20.3182 369.682 80.0725 369.682 153.5C369.682 226.928 309.928 286.682 236.5 286.682Z" fill="#008938"/>
<path d="M236.499 35.8561C301.359 35.8561 354.143 88.6405 354.143 153.5C354.143 218.36 301.359 271.144 236.499 271.144C171.64 271.144 118.855 218.36 118.855 153.5C118.855 88.6405 171.64 35.8561 236.499 35.8561ZM236.499 26.9773C166.623 26.9773 109.977 83.624 109.977 153.5C109.977 223.376 166.623 280.023 236.499 280.023C306.375 280.023 363.022 223.376 363.022 153.5C363.022 83.624 306.375 26.9773 236.499 26.9773Z" fill="#006023"/>
</svg>
