<svg width="473" height="305" viewBox="0 0 473 305" fill="none" xmlns="http://www.w3.org/2000/svg">
<rect width="473" height="305" fill="#CCE2D8"/>
<rect x="179" y="16" width="135" height="2.16364" fill="#0B0C0C"/>
<rect x="180" y="19.1641" width="133" height="114.836" fill="white"/>
<rect x="180" y="19.1641" width="133" height="114.836" stroke="black" stroke-width="2"/>
<rect width="131" height="24" transform="translate(181 18.1641)" fill="#1D70B8"/>
<path d="M194.785 33.1111C194.421 33.5791 194.018 33.9084 193.576 34.0991C193.134 34.2811 192.687 34.3721 192.237 34.3721C191.526 34.3721 190.885 34.2507 190.313 34.0081C189.749 33.7567 189.273 33.4144 188.883 32.9811C188.493 32.5477 188.194 32.0407 187.986 31.4601C187.778 30.8707 187.674 30.2381 187.674 29.5621C187.674 28.8687 187.778 28.2274 187.986 27.6381C188.194 27.0401 188.493 26.5201 188.883 26.0781C189.273 25.6361 189.749 25.2894 190.313 25.0381C190.885 24.7867 191.526 24.6611 192.237 24.6611C192.713 24.6611 193.173 24.7347 193.615 24.8821C194.065 25.0207 194.468 25.2287 194.824 25.5061C195.188 25.7834 195.487 26.1257 195.721 26.5331C195.955 26.9404 196.098 27.4084 196.15 27.9371H194.2C194.078 27.4171 193.844 27.0271 193.498 26.7671C193.151 26.5071 192.731 26.3771 192.237 26.3771C191.777 26.3771 191.387 26.4681 191.067 26.6501C190.746 26.8234 190.486 27.0617 190.287 27.3651C190.087 27.6597 189.94 27.9977 189.845 28.3791C189.758 28.7604 189.715 29.1547 189.715 29.5621C189.715 29.9521 189.758 30.3334 189.845 30.7061C189.94 31.0701 190.087 31.3994 190.287 31.6941C190.486 31.9887 190.746 32.2271 191.067 32.4091C191.387 32.5824 191.777 32.6691 192.237 32.6691C192.913 32.6691 193.433 32.5001 193.797 32.1621C194.169 31.8154 194.386 31.3171 194.447 30.6671H192.393V29.1461H196.293V34.1641H194.993L194.785 33.1111ZM199.579 29.5621C199.579 29.9521 199.622 30.3334 199.709 30.7061C199.804 31.0701 199.952 31.3994 200.151 31.6941C200.35 31.9887 200.61 32.2271 200.931 32.4091C201.252 32.5824 201.642 32.6691 202.101 32.6691C202.56 32.6691 202.95 32.5824 203.271 32.4091C203.592 32.2271 203.852 31.9887 204.051 31.6941C204.25 31.3994 204.393 31.0701 204.48 30.7061C204.575 30.3334 204.623 29.9521 204.623 29.5621C204.623 29.1547 204.575 28.7604 204.48 28.3791C204.393 27.9977 204.25 27.6597 204.051 27.3651C203.852 27.0617 203.592 26.8234 203.271 26.6501C202.95 26.4681 202.56 26.3771 202.101 26.3771C201.642 26.3771 201.252 26.4681 200.931 26.6501C200.61 26.8234 200.35 27.0617 200.151 27.3651C199.952 27.6597 199.804 27.9977 199.709 28.3791C199.622 28.7604 199.579 29.1547 199.579 29.5621ZM197.538 29.5621C197.538 28.8687 197.642 28.2274 197.85 27.6381C198.058 27.0401 198.357 26.5201 198.747 26.0781C199.137 25.6361 199.614 25.2894 200.177 25.0381C200.749 24.7867 201.39 24.6611 202.101 24.6611C202.82 24.6611 203.462 24.7867 204.025 25.0381C204.588 25.2894 205.065 25.6361 205.455 26.0781C205.845 26.5201 206.144 27.0401 206.352 27.6381C206.56 28.2274 206.664 28.8687 206.664 29.5621C206.664 30.2381 206.56 30.8707 206.352 31.4601C206.144 32.0407 205.845 32.5477 205.455 32.9811C205.065 33.4144 204.588 33.7567 204.025 34.0081C203.462 34.2507 202.82 34.3721 202.101 34.3721C201.39 34.3721 200.749 34.2507 200.177 34.0081C199.614 33.7567 199.137 33.4144 198.747 32.9811C198.357 32.5477 198.058 32.0407 197.85 31.4601C197.642 30.8707 197.538 30.2381 197.538 29.5621ZM212.375 34.1641H210.074L207.071 24.8821H209.164L211.231 31.4081H211.257L213.35 24.8821H215.456L212.375 34.1641ZM231.362 30.6541C231.362 31.9107 231.011 32.8467 230.309 33.4621C229.607 34.0687 228.636 34.3721 227.397 34.3721C226.14 34.3721 225.165 34.0687 224.472 33.4621C223.787 32.8554 223.445 31.9194 223.445 30.6541V24.8821H225.486V30.6541C225.486 30.9054 225.508 31.1524 225.551 31.3951C225.594 31.6377 225.685 31.8544 225.824 32.0451C225.963 32.2271 226.153 32.3787 226.396 32.5001C226.647 32.6127 226.981 32.6691 227.397 32.6691C228.125 32.6691 228.628 32.5087 228.905 32.1881C229.182 31.8587 229.321 31.3474 229.321 30.6541V24.8821H231.362V30.6541ZM233.12 24.8821H235.161V28.7301L238.788 24.8821H241.336L237.709 28.5481L241.687 34.1641H239.126L236.331 29.9911L235.161 31.1741V34.1641H233.12V24.8821Z" fill="white"/>
<circle cx="218.5" cy="29.5" r="1.5" fill="#00FFE0"/>
<mask id="path-5-inside-1_33873_28663" fill="white">
<path d="M181 42.1641H314V135.164H181V42.1641Z"/>
</mask>
<path d="M314 42.1641H316V40.1641H314V42.1641ZM314 135.164V137.164H316V135.164H314ZM181 42.1641V44.1641H314V42.1641V40.1641H181V42.1641ZM314 42.1641H312V135.164H314H316V42.1641H314ZM314 135.164V133.164H181V135.164V137.164H314V135.164Z" fill="black" mask="url(#path-5-inside-1_33873_28663)"/>
<rect width="116" height="58" transform="translate(188 49.1641)" fill="#00823B"/>
<path d="M222.33 58.8841H232.37V61.5241H225.47V64.8241H231.45V67.2641H225.47V73.1641H222.33V58.8841ZM236.435 68.0041C236.435 68.4174 236.475 68.8241 236.555 69.2241C236.635 69.6107 236.769 69.9641 236.955 70.2841C237.155 70.5907 237.415 70.8374 237.735 71.0241C238.055 71.2107 238.455 71.3041 238.935 71.3041C239.415 71.3041 239.815 71.2107 240.135 71.0241C240.469 70.8374 240.729 70.5907 240.915 70.2841C241.115 69.9641 241.255 69.6107 241.335 69.2241C241.415 68.8241 241.455 68.4174 241.455 68.0041C241.455 67.5907 241.415 67.1841 241.335 66.7841C241.255 66.3841 241.115 66.0307 240.915 65.7241C240.729 65.4174 240.469 65.1707 240.135 64.9841C239.815 64.7841 239.415 64.6841 238.935 64.6841C238.455 64.6841 238.055 64.7841 237.735 64.9841C237.415 65.1707 237.155 65.4174 236.955 65.7241C236.769 66.0307 236.635 66.3841 236.555 66.7841C236.475 67.1841 236.435 67.5907 236.435 68.0041ZM233.595 68.0041C233.595 67.1774 233.722 66.4307 233.975 65.7641C234.229 65.0841 234.589 64.5107 235.055 64.0441C235.522 63.5641 236.082 63.1974 236.735 62.9441C237.389 62.6774 238.122 62.5441 238.935 62.5441C239.749 62.5441 240.482 62.6774 241.135 62.9441C241.802 63.1974 242.369 63.5641 242.835 64.0441C243.302 64.5107 243.662 65.0841 243.915 65.7641C244.169 66.4307 244.295 67.1774 244.295 68.0041C244.295 68.8307 244.169 69.5774 243.915 70.2441C243.662 70.9107 243.302 71.4841 242.835 71.9641C242.369 72.4307 241.802 72.7907 241.135 73.0441C240.482 73.2974 239.749 73.4241 238.935 73.4241C238.122 73.4241 237.389 73.2974 236.735 73.0441C236.082 72.7907 235.522 72.4307 235.055 71.9641C234.589 71.4841 234.229 70.9107 233.975 70.2441C233.722 69.5774 233.595 68.8307 233.595 68.0041ZM246.172 62.8241H248.872V64.7441H248.912C249.045 64.4241 249.225 64.1307 249.452 63.8641C249.678 63.5841 249.938 63.3507 250.232 63.1641C250.525 62.9641 250.838 62.8107 251.172 62.7041C251.505 62.5974 251.852 62.5441 252.212 62.5441C252.398 62.5441 252.605 62.5774 252.832 62.6441V65.2841C252.698 65.2574 252.538 65.2374 252.352 65.2241C252.165 65.1974 251.985 65.1841 251.812 65.1841C251.292 65.1841 250.852 65.2707 250.492 65.4441C250.132 65.6174 249.838 65.8574 249.612 66.1641C249.398 66.4574 249.245 66.8041 249.152 67.2041C249.058 67.6041 249.012 68.0374 249.012 68.5041V73.1641H246.172V62.8241ZM254.055 62.8241H256.735V64.2241H256.775C257.149 63.6907 257.595 63.2774 258.115 62.9841C258.649 62.6907 259.255 62.5441 259.935 62.5441C260.589 62.5441 261.182 62.6707 261.715 62.9241C262.262 63.1774 262.675 63.6241 262.955 64.2641C263.262 63.8107 263.675 63.4107 264.195 63.0641C264.729 62.7174 265.355 62.5441 266.075 62.5441C266.622 62.5441 267.129 62.6107 267.595 62.7441C268.062 62.8774 268.462 63.0907 268.795 63.3841C269.129 63.6774 269.389 64.0641 269.575 64.5441C269.762 65.0107 269.855 65.5774 269.855 66.2441V73.1641H267.015V67.3041C267.015 66.9574 267.002 66.6307 266.975 66.3241C266.949 66.0174 266.875 65.7507 266.755 65.5241C266.635 65.2974 266.455 65.1174 266.215 64.9841C265.989 64.8507 265.675 64.7841 265.275 64.7841C264.875 64.7841 264.549 64.8641 264.295 65.0241C264.055 65.1707 263.862 65.3707 263.715 65.6241C263.582 65.8641 263.489 66.1441 263.435 66.4641C263.395 66.7707 263.375 67.0841 263.375 67.4041V73.1641H260.535V67.3641C260.535 67.0574 260.529 66.7574 260.515 66.4641C260.502 66.1574 260.442 65.8774 260.335 65.6241C260.242 65.3707 260.075 65.1707 259.835 65.0241C259.609 64.8641 259.269 64.7841 258.815 64.7841C258.682 64.7841 258.502 64.8174 258.275 64.8841C258.062 64.9374 257.849 65.0507 257.635 65.2241C257.435 65.3841 257.262 65.6241 257.115 65.9441C256.969 66.2507 256.895 66.6574 256.895 67.1641V73.1641H254.055V62.8241ZM209.406 91.4641C209.219 90.2774 208.519 89.6841 207.306 89.6841C206.852 89.6841 206.472 89.7907 206.166 90.0041C205.859 90.2041 205.606 90.4707 205.406 90.8041C205.219 91.1241 205.086 91.4841 205.006 91.8841C204.926 92.2707 204.886 92.6574 204.886 93.0441C204.886 93.4174 204.926 93.7974 205.006 94.1841C205.086 94.5707 205.212 94.9241 205.386 95.2441C205.572 95.5507 205.819 95.8041 206.126 96.0041C206.432 96.2041 206.806 96.3041 207.246 96.3041C207.926 96.3041 208.446 96.1174 208.806 95.7441C209.179 95.3574 209.412 94.8441 209.506 94.2041H212.246C212.059 95.5774 211.526 96.6241 210.646 97.3441C209.766 98.0641 208.639 98.4241 207.266 98.4241C206.492 98.4241 205.779 98.2974 205.126 98.0441C204.486 97.7774 203.939 97.4107 203.486 96.9441C203.032 96.4774 202.679 95.9241 202.426 95.2841C202.172 94.6307 202.046 93.9174 202.046 93.1441C202.046 92.3441 202.159 91.6041 202.386 90.9241C202.626 90.2307 202.972 89.6374 203.426 89.1441C203.879 88.6374 204.432 88.2441 205.086 87.9641C205.739 87.6841 206.486 87.5441 207.326 87.5441C207.939 87.5441 208.526 87.6241 209.086 87.7841C209.659 87.9441 210.166 88.1907 210.606 88.5241C211.059 88.8441 211.426 89.2507 211.706 89.7441C211.986 90.2241 212.146 90.7974 212.186 91.4641H209.406ZM216.4 93.0041C216.4 93.4174 216.44 93.8241 216.52 94.2241C216.6 94.6107 216.733 94.9641 216.92 95.2841C217.12 95.5907 217.38 95.8374 217.7 96.0241C218.02 96.2107 218.42 96.3041 218.9 96.3041C219.38 96.3041 219.78 96.2107 220.1 96.0241C220.433 95.8374 220.693 95.5907 220.88 95.2841C221.08 94.9641 221.22 94.6107 221.3 94.2241C221.38 93.8241 221.42 93.4174 221.42 93.0041C221.42 92.5907 221.38 92.1841 221.3 91.7841C221.22 91.3841 221.08 91.0307 220.88 90.7241C220.693 90.4174 220.433 90.1707 220.1 89.9841C219.78 89.7841 219.38 89.6841 218.9 89.6841C218.42 89.6841 218.02 89.7841 217.7 89.9841C217.38 90.1707 217.12 90.4174 216.92 90.7241C216.733 91.0307 216.6 91.3841 216.52 91.7841C216.44 92.1841 216.4 92.5907 216.4 93.0041ZM213.56 93.0041C213.56 92.1774 213.687 91.4307 213.94 90.7641C214.193 90.0841 214.553 89.5107 215.02 89.0441C215.487 88.5641 216.047 88.1974 216.7 87.9441C217.353 87.6774 218.087 87.5441 218.9 87.5441C219.713 87.5441 220.447 87.6774 221.1 87.9441C221.767 88.1974 222.333 88.5641 222.8 89.0441C223.267 89.5107 223.627 90.0841 223.88 90.7641C224.133 91.4307 224.26 92.1774 224.26 93.0041C224.26 93.8307 224.133 94.5774 223.88 95.2441C223.627 95.9107 223.267 96.4841 222.8 96.9641C222.333 97.4307 221.767 97.7907 221.1 98.0441C220.447 98.2974 219.713 98.4241 218.9 98.4241C218.087 98.4241 217.353 98.2974 216.7 98.0441C216.047 97.7907 215.487 97.4307 215.02 96.9641C214.553 96.4841 214.193 95.9107 213.94 95.2441C213.687 94.5774 213.56 93.8307 213.56 93.0041ZM226.217 87.8241H228.897V89.2241H228.937C229.31 88.6907 229.757 88.2774 230.277 87.9841C230.81 87.6907 231.417 87.5441 232.097 87.5441C232.75 87.5441 233.343 87.6707 233.877 87.9241C234.423 88.1774 234.837 88.6241 235.117 89.2641C235.423 88.8107 235.837 88.4107 236.357 88.0641C236.89 87.7174 237.517 87.5441 238.237 87.5441C238.783 87.5441 239.29 87.6107 239.757 87.7441C240.223 87.8774 240.623 88.0907 240.957 88.3841C241.29 88.6774 241.55 89.0641 241.737 89.5441C241.923 90.0107 242.017 90.5774 242.017 91.2441V98.1641H239.177V92.3041C239.177 91.9574 239.163 91.6307 239.137 91.3241C239.11 91.0174 239.037 90.7507 238.917 90.5241C238.797 90.2974 238.617 90.1174 238.377 89.9841C238.15 89.8507 237.837 89.7841 237.437 89.7841C237.037 89.7841 236.71 89.8641 236.457 90.0241C236.217 90.1707 236.023 90.3707 235.877 90.6241C235.743 90.8641 235.65 91.1441 235.597 91.4641C235.557 91.7707 235.537 92.0841 235.537 92.4041V98.1641H232.697V92.3641C232.697 92.0574 232.69 91.7574 232.677 91.4641C232.663 91.1574 232.603 90.8774 232.497 90.6241C232.403 90.3707 232.237 90.1707 231.997 90.0241C231.77 89.8641 231.43 89.7841 230.977 89.7841C230.843 89.7841 230.663 89.8174 230.437 89.8841C230.223 89.9374 230.01 90.0507 229.797 90.2241C229.597 90.3841 229.423 90.6241 229.277 90.9441C229.13 91.2507 229.057 91.6574 229.057 92.1641V98.1641H226.217V87.8241ZM249.512 96.3041C249.978 96.3041 250.365 96.2107 250.672 96.0241C250.992 95.8374 251.245 95.5974 251.432 95.3041C251.632 94.9974 251.772 94.6441 251.852 94.2441C251.932 93.8441 251.972 93.4374 251.972 93.0241C251.972 92.6107 251.925 92.2041 251.832 91.8041C251.752 91.4041 251.612 91.0507 251.412 90.7441C251.212 90.4241 250.952 90.1707 250.632 89.9841C250.325 89.7841 249.945 89.6841 249.492 89.6841C249.025 89.6841 248.632 89.7841 248.312 89.9841C248.005 90.1707 247.752 90.4174 247.552 90.7241C247.365 91.0307 247.232 91.3841 247.152 91.7841C247.072 92.1841 247.032 92.5974 247.032 93.0241C247.032 93.4374 247.072 93.8441 247.152 94.2441C247.245 94.6441 247.385 94.9974 247.572 95.3041C247.772 95.5974 248.032 95.8374 248.352 96.0241C248.672 96.2107 249.058 96.3041 249.512 96.3041ZM244.292 87.8241H246.992V89.1441H247.032C247.378 88.5841 247.818 88.1774 248.352 87.9241C248.885 87.6707 249.472 87.5441 250.112 87.5441C250.925 87.5441 251.625 87.6974 252.212 88.0041C252.798 88.3107 253.285 88.7174 253.672 89.2241C254.058 89.7307 254.345 90.3241 254.532 91.0041C254.718 91.6707 254.812 92.3707 254.812 93.1041C254.812 93.7974 254.718 94.4641 254.532 95.1041C254.345 95.7441 254.058 96.3107 253.672 96.8041C253.298 97.2974 252.825 97.6907 252.252 97.9841C251.692 98.2774 251.032 98.4241 250.272 98.4241C249.632 98.4241 249.038 98.2974 248.492 98.0441C247.958 97.7774 247.518 97.3907 247.172 96.8841H247.132V101.784H244.292V87.8241ZM256.628 83.8841H259.468V98.1641H256.628V83.8841ZM268.694 91.8841C268.561 91.1641 268.321 90.6174 267.974 90.2441C267.641 89.8707 267.128 89.6841 266.434 89.6841C265.981 89.6841 265.601 89.7641 265.294 89.9241C265.001 90.0707 264.761 90.2574 264.574 90.4841C264.401 90.7107 264.274 90.9507 264.194 91.2041C264.128 91.4574 264.088 91.6841 264.074 91.8841H268.694ZM264.074 93.6841C264.114 94.6041 264.348 95.2707 264.774 95.6841C265.201 96.0974 265.814 96.3041 266.614 96.3041C267.188 96.3041 267.681 96.1641 268.094 95.8841C268.508 95.5907 268.761 95.2841 268.854 94.9641H271.354C270.954 96.2041 270.341 97.0907 269.514 97.6241C268.688 98.1574 267.688 98.4241 266.514 98.4241C265.701 98.4241 264.968 98.2974 264.314 98.0441C263.661 97.7774 263.108 97.4041 262.654 96.9241C262.201 96.4441 261.848 95.8707 261.594 95.2041C261.354 94.5374 261.234 93.8041 261.234 93.0041C261.234 92.2307 261.361 91.5107 261.614 90.8441C261.868 90.1774 262.228 89.6041 262.694 89.1241C263.161 88.6307 263.714 88.2441 264.354 87.9641C265.008 87.6841 265.728 87.5441 266.514 87.5441C267.394 87.5441 268.161 87.7174 268.814 88.0641C269.468 88.3974 270.001 88.8507 270.414 89.4241C270.841 89.9974 271.148 90.6507 271.334 91.3841C271.521 92.1174 271.588 92.8841 271.534 93.6841H264.074ZM276.849 87.8241H278.929V89.7241H276.849V94.8441C276.849 95.3241 276.929 95.6441 277.089 95.8041C277.249 95.9641 277.569 96.0441 278.049 96.0441C278.209 96.0441 278.362 96.0374 278.509 96.0241C278.655 96.0107 278.795 95.9907 278.929 95.9641V98.1641C278.689 98.2041 278.422 98.2307 278.129 98.2441C277.835 98.2574 277.549 98.2641 277.269 98.2641C276.829 98.2641 276.409 98.2307 276.009 98.1641C275.622 98.1107 275.275 97.9974 274.969 97.8241C274.675 97.6507 274.442 97.4041 274.269 97.0841C274.095 96.7641 274.009 96.3441 274.009 95.8241V89.7241H272.289V87.8241H274.009V84.7241H276.849V87.8241ZM287.27 91.8841C287.137 91.1641 286.897 90.6174 286.55 90.2441C286.217 89.8707 285.703 89.6841 285.01 89.6841C284.557 89.6841 284.177 89.7641 283.87 89.9241C283.577 90.0707 283.337 90.2574 283.15 90.4841C282.977 90.7107 282.85 90.9507 282.77 91.2041C282.703 91.4574 282.663 91.6841 282.65 91.8841H287.27ZM282.65 93.6841C282.69 94.6041 282.923 95.2707 283.35 95.6841C283.777 96.0974 284.39 96.3041 285.19 96.3041C285.763 96.3041 286.257 96.1641 286.67 95.8841C287.083 95.5907 287.337 95.2841 287.43 94.9641H289.93C289.53 96.2041 288.917 97.0907 288.09 97.6241C287.263 98.1574 286.263 98.4241 285.09 98.4241C284.277 98.4241 283.543 98.2974 282.89 98.0441C282.237 97.7774 281.683 97.4041 281.23 96.9241C280.777 96.4441 280.423 95.8707 280.17 95.2041C279.93 94.5374 279.81 93.8041 279.81 93.0041C279.81 92.2307 279.937 91.5107 280.19 90.8441C280.443 90.1774 280.803 89.6041 281.27 89.1241C281.737 88.6307 282.29 88.2441 282.93 87.9641C283.583 87.6841 284.303 87.5441 285.09 87.5441C285.97 87.5441 286.737 87.7174 287.39 88.0641C288.043 88.3974 288.577 88.8507 288.99 89.4241C289.417 89.9974 289.723 90.6507 289.91 91.3841C290.097 92.1174 290.163 92.8841 290.11 93.6841H282.65Z" fill="white"/>
<rect x="188" y="112.164" width="22" height="1" fill="#0B0C0C"/>
<rect x="188" y="117.164" width="72" height="1" fill="#0B0C0C"/>
<rect x="188" y="127.164" width="72" height="1" fill="#0B0C0C"/>
<rect x="188" y="122.164" width="72" height="1" fill="#0B0C0C"/>
<circle cx="176.807" cy="232.807" r="63.307" fill="white" stroke="#006228"/>
<circle cx="321.194" cy="232.807" r="63.307" fill="white" stroke="#006228"/>
<g clip-path="url(#clip0_33873_28663)">
<path d="M213.754 218.484H211.46V207.414C211.46 207.345 211.449 207.276 211.44 207.206C211.437 206.767 211.296 206.335 210.996 205.993L192.578 184.954C192.572 184.949 192.566 184.947 192.563 184.941C192.453 184.818 192.325 184.716 192.189 184.628C192.15 184.601 192.109 184.579 192.067 184.555C191.95 184.492 191.825 184.438 191.698 184.4C191.663 184.39 191.632 184.377 191.597 184.367C191.458 184.334 191.313 184.313 191.167 184.313H145.902C143.835 184.313 142.156 185.995 142.156 188.06V218.483H139.862C136.905 218.483 134.508 220.879 134.508 223.837V251.681C134.508 254.636 136.905 257.035 139.862 257.035H142.156V276.096C142.156 278.161 143.835 279.842 145.902 279.842H207.714C209.779 279.842 211.46 278.161 211.46 276.096V257.035H213.754C216.71 257.035 219.108 254.637 219.108 251.681V223.838C219.108 220.879 216.71 218.484 213.754 218.484ZM145.902 188.06H189.294V207.226C189.294 208.261 190.133 209.099 191.167 209.099H207.714V218.484H145.902V188.06ZM164.38 223.522H171.642L174.092 228.627C174.921 230.327 175.544 231.697 176.208 233.275H176.292C176.954 231.49 177.494 230.245 178.2 228.627L180.567 223.522H187.789L179.903 237.175L188.203 251.494H180.898L178.367 246.431C177.329 244.48 176.665 243.029 175.876 241.409H175.793C175.212 243.029 174.507 244.48 173.635 246.431L171.312 251.494H164.089L172.183 237.343L164.38 223.522ZM140.557 228.835V223.522H162.054V228.835H154.417V251.493H148.07V228.835H140.557ZM207.714 275.08H145.902V257.035H207.714V275.08H207.714ZM211.239 228.835H203.602V251.493H197.253V228.835H189.74V223.522H211.239V228.835H211.239Z" fill="#006228"/>
</g>
<g clip-path="url(#clip1_33873_28663)">
<path d="M360.901 204.539L358.642 202.28L342.869 186.506L342.866 186.504L341.588 185.225C340.999 184.637 340.217 184.313 339.386 184.313H291.22C289.25 184.313 287.133 185.834 287.133 189.169V249.038V276.483V277.252C287.133 278.641 288.529 279.993 290.18 280.42C290.264 280.443 290.346 280.475 290.432 280.491C290.691 280.543 290.955 280.571 291.22 280.571H357.728C357.993 280.571 358.257 280.543 358.516 280.491C358.602 280.475 358.684 280.443 358.768 280.42C360.42 279.993 361.815 278.641 361.815 277.252V276.483V249.038V207.511C361.815 206.239 361.661 205.298 360.901 204.539ZM341.9 190.23L355.899 204.229H341.9V190.23ZM291.22 277.252C291.103 277.252 290.996 277.21 290.892 277.17C290.635 277.047 290.452 276.789 290.452 276.483V252.357H358.496V276.483C358.496 276.789 358.313 277.047 358.056 277.17C357.952 277.21 357.845 277.252 357.728 277.252H291.22ZM290.452 249.038V189.169C290.452 188.809 290.507 187.633 291.22 187.633H338.677C338.622 187.842 338.581 188.058 338.581 188.282V207.183C337.698 206.386 336.541 205.888 335.261 205.888C334.344 205.888 333.602 206.632 333.602 207.548C333.602 208.464 334.344 209.208 335.261 209.208C336.178 209.208 336.921 209.953 336.921 210.867V217.506C336.921 219.497 337.821 221.266 339.215 222.484C337.821 223.703 336.921 225.472 336.921 227.463V234.102C336.921 235.016 336.178 235.761 335.261 235.761C334.344 235.761 333.602 236.505 333.602 237.421C333.602 238.337 334.344 239.081 335.261 239.081C338.006 239.081 340.24 236.847 340.24 234.102V227.463C340.24 225.633 341.729 224.144 343.56 224.144C344.477 224.144 345.219 223.401 345.219 222.484C345.219 221.568 344.477 220.825 343.56 220.825C341.729 220.825 340.24 219.336 340.24 217.506V210.867C340.24 209.588 339.741 208.431 338.946 207.548H357.847C358.071 207.548 358.287 207.507 358.496 207.452C358.496 207.477 358.498 207.487 358.498 207.511V249.038H290.452Z" fill="#006228"/>
<path d="M303.486 269.667C303.455 270.407 303.203 270.935 302.726 271.244C302.25 271.552 301.611 271.708 300.809 271.708C300.492 271.708 300.152 271.672 299.789 271.596C299.425 271.519 299.077 271.433 298.745 271.335C298.413 271.237 298.106 271.131 297.825 271.018C297.545 270.905 297.329 270.794 297.178 270.689L296.021 272.527C296.325 272.754 296.694 272.958 297.133 273.139C297.573 273.32 298.03 273.483 298.506 273.627C298.982 273.771 299.444 273.876 299.89 273.944C300.336 274.012 300.726 274.047 301.058 274.047C301.724 274.047 302.371 273.982 302.998 273.854C303.626 273.727 304.182 273.499 304.666 273.174C305.151 272.849 305.536 272.417 305.823 271.881C306.11 271.345 306.255 270.681 306.255 269.896V256.872H303.486V269.667Z" fill="#006228"/>
<path d="M317.973 265.741C317.452 265.362 316.887 265.04 316.282 264.777C315.676 264.513 315.117 264.24 314.602 263.96C314.088 263.68 313.658 263.356 313.309 262.984C312.961 262.612 312.788 262.124 312.788 261.52C312.788 261.278 312.848 261.024 312.969 260.76C313.09 260.496 313.256 260.257 313.469 260.045C313.681 259.833 313.922 259.657 314.195 259.512C314.469 259.368 314.755 259.282 315.058 259.252C315.603 259.207 316.049 259.199 316.398 259.228C316.746 259.258 317.025 259.311 317.237 259.388C317.45 259.464 317.613 259.539 317.725 259.615C317.838 259.691 317.941 259.751 318.032 259.796C318.047 259.781 318.092 259.705 318.169 259.569C318.245 259.433 318.336 259.262 318.441 259.058C318.545 258.853 318.66 258.634 318.781 258.4C318.902 258.166 319.008 257.951 319.098 257.753C318.658 257.466 318.086 257.257 317.374 257.129C316.662 257.001 315.958 256.937 315.264 256.937C314.584 256.937 313.937 257.041 313.324 257.254C312.712 257.466 312.176 257.773 311.713 258.173C311.25 258.573 310.885 259.061 310.612 259.637C310.34 260.213 310.201 260.871 310.201 261.612C310.201 262.428 310.373 263.109 310.722 263.653C311.07 264.197 311.509 264.67 312.038 265.07C312.567 265.47 313.135 265.819 313.739 266.114C314.343 266.41 314.907 266.703 315.43 266.999C315.953 267.294 316.386 267.623 316.735 267.986C317.083 268.35 317.256 268.788 317.256 269.302C317.256 270.15 317.01 270.789 316.519 271.219C316.028 271.649 315.319 271.866 314.398 271.866C314.094 271.866 313.771 271.835 313.422 271.775C313.074 271.715 312.727 271.636 312.378 271.536C312.03 271.437 311.694 271.332 311.369 271.219C311.044 271.106 310.777 270.988 310.564 270.867L310.088 272.819C310.345 273.046 310.652 273.239 311.007 273.398C311.362 273.558 311.736 273.682 312.131 273.773C312.524 273.865 312.914 273.929 313.299 273.966C313.684 274.002 314.059 274.022 314.423 274.022C315.271 274.022 316.026 273.894 316.691 273.637C317.357 273.38 317.916 273.036 318.371 272.605C318.826 272.173 319.176 271.674 319.427 271.108C319.677 270.542 319.802 269.955 319.802 269.349C319.802 268.456 319.629 267.726 319.28 267.16C318.932 266.594 318.494 266.119 317.973 265.741Z" fill="#006228"/>
<path d="M334.22 259.116C333.592 258.404 332.859 257.864 332.019 257.492C331.179 257.121 330.26 256.937 329.262 256.937C328.265 256.937 327.345 257.121 326.506 257.492C325.666 257.864 324.932 258.404 324.305 259.116C323.678 259.828 323.185 260.715 322.83 261.781C322.474 262.846 322.297 264.084 322.297 265.49C322.297 266.896 322.474 268.137 322.83 269.211C323.185 270.285 323.678 271.178 324.305 271.888C324.932 272.598 325.666 273.136 326.506 273.499C327.345 273.863 328.265 274.044 329.262 274.044C330.26 274.044 331.179 273.863 332.019 273.499C332.859 273.136 333.592 272.6 334.22 271.888C334.847 271.176 335.34 270.285 335.695 269.211C336.05 268.137 336.228 266.896 336.228 265.49C336.228 264.084 336.05 262.846 335.695 261.781C335.34 260.715 334.847 259.828 334.22 259.116ZM333.096 268.453C332.869 269.261 332.555 269.916 332.155 270.416C331.755 270.915 331.3 271.276 330.794 271.493C330.288 271.71 329.754 271.822 329.194 271.822C328.65 271.822 328.13 271.705 327.639 271.47C327.148 271.234 326.708 270.866 326.323 270.358C325.938 269.85 325.634 269.198 325.415 268.394C325.196 267.591 325.078 266.625 325.063 265.49C325.078 264.325 325.2 263.343 325.427 262.541C325.654 261.739 325.968 261.086 326.368 260.578C326.768 260.07 327.223 259.713 327.729 259.501C328.235 259.288 328.769 259.184 329.329 259.184C329.873 259.184 330.392 259.296 330.884 259.524C331.375 259.751 331.815 260.121 332.2 260.636C332.585 261.15 332.889 261.804 333.108 262.599C333.327 263.394 333.444 264.358 333.459 265.492C333.444 266.657 333.323 267.644 333.096 268.453Z" fill="#006228"/>
<path d="M349.388 268.736L342.831 257.21H340.062V273.932H342.831V262.406L349.388 273.932H352.156V257.21H349.388V268.736Z" fill="#006228"/>
<path d="M310.366 217.505V210.867C310.366 209.953 311.11 209.207 312.026 209.207C312.944 209.207 313.686 208.464 313.686 207.548C313.686 206.632 312.944 205.888 312.026 205.888C309.281 205.888 307.047 208.122 307.047 210.867V217.505C307.047 219.336 305.559 220.825 303.728 220.825C302.81 220.825 302.068 221.568 302.068 222.484C302.068 223.4 302.81 224.144 303.728 224.144C305.559 224.144 307.047 225.633 307.047 227.463V234.102C307.047 236.847 309.281 239.08 312.026 239.08C312.944 239.08 313.686 238.337 313.686 237.421C313.686 236.505 312.944 235.761 312.026 235.761C311.11 235.761 310.366 235.016 310.366 234.102V227.463C310.366 225.472 309.467 223.702 308.073 222.484C309.467 221.266 310.366 219.497 310.366 217.505Z" fill="#006228"/>
<path d="M323.644 219.165C325.019 219.165 326.133 218.051 326.133 216.676C326.133 215.301 325.019 214.187 323.644 214.187C322.269 214.187 321.154 215.301 321.154 216.676C321.154 218.051 322.269 219.165 323.644 219.165Z" fill="#006228"/>
<path d="M323.644 225.804C322.726 225.804 321.984 226.547 321.984 227.463V232.442C321.984 233.358 322.726 234.102 323.644 234.102C324.562 234.102 325.304 233.358 325.304 232.442V227.463C325.304 226.547 324.562 225.804 323.644 225.804Z" fill="#006228"/>
</g>
<path d="M248.5 135.164C248.5 134.612 248.052 134.164 247.5 134.164C246.947 134.164 246.5 134.612 246.5 135.164H247.5H248.5ZM175.807 165.5C175.807 166.052 176.254 166.5 176.807 166.5C177.359 166.5 177.807 166.052 177.807 165.5H176.807H175.807ZM177.816 165.011C177.837 164.459 177.407 163.995 176.855 163.973C176.304 163.952 175.839 164.382 175.818 164.934L176.817 164.972L177.816 165.011ZM176.694 160.508C176.503 161.026 176.768 161.601 177.286 161.793C177.804 161.984 178.38 161.719 178.571 161.201L177.633 160.855L176.694 160.508ZM178.944 160.3C179.176 159.799 178.957 159.205 178.456 158.973C177.954 158.742 177.36 158.96 177.128 159.462L178.036 159.881L178.944 160.3ZM179.637 155.713C179.262 156.118 179.287 156.751 179.692 157.126C180.098 157.501 180.731 157.476 181.106 157.071L180.371 156.392L179.637 155.713ZM181.795 156.381C182.201 156.006 182.226 155.373 181.851 154.968C181.476 154.562 180.843 154.538 180.438 154.913L181.116 155.647L181.795 156.381ZM184.186 152.404C183.685 152.635 183.466 153.23 183.698 153.731C183.929 154.232 184.523 154.451 185.025 154.22L184.606 153.312L184.186 152.404ZM185.925 153.846C186.443 153.655 186.709 153.08 186.517 152.562C186.326 152.044 185.751 151.779 185.233 151.97L185.579 152.908L185.925 153.846ZM189.658 151.093C189.107 151.114 188.676 151.579 188.698 152.131C188.719 152.683 189.184 153.113 189.736 153.091L189.697 152.092L189.658 151.093ZM190.729 153.082C191.281 153.082 191.729 152.634 191.729 152.082C191.729 151.53 191.281 151.082 190.729 151.082V152.082V153.082ZM194.765 151.082C194.212 151.082 193.765 151.53 193.765 152.082C193.765 152.634 194.212 153.082 194.765 153.082V152.082V151.082ZM195.774 153.082C196.326 153.082 196.774 152.634 196.774 152.082C196.774 151.53 196.326 151.082 195.774 151.082V152.082V153.082ZM199.809 151.082C199.257 151.082 198.809 151.53 198.809 152.082C198.809 152.634 199.257 153.082 199.809 153.082V152.082V151.082ZM200.818 153.082C201.371 153.082 201.818 152.634 201.818 152.082C201.818 151.53 201.371 151.082 200.818 151.082V152.082V153.082ZM204.854 151.082C204.302 151.082 203.854 151.53 203.854 152.082C203.854 152.634 204.302 153.082 204.854 153.082V152.082V151.082ZM205.863 153.082C206.415 153.082 206.863 152.634 206.863 152.082C206.863 151.53 206.415 151.082 205.863 151.082V152.082V153.082ZM209.899 151.082C209.346 151.082 208.899 151.53 208.899 152.082C208.899 152.634 209.346 153.082 209.899 153.082V152.082V151.082ZM210.908 153.082C211.46 153.082 211.908 152.634 211.908 152.082C211.908 151.53 211.46 151.082 210.908 151.082V152.082V153.082ZM214.943 151.082C214.391 151.082 213.943 151.53 213.943 152.082C213.943 152.634 214.391 153.082 214.943 153.082V152.082V151.082ZM215.952 153.082C216.505 153.082 216.952 152.634 216.952 152.082C216.952 151.53 216.505 151.082 215.952 151.082V152.082V153.082ZM219.988 151.082C219.436 151.082 218.988 151.53 218.988 152.082C218.988 152.634 219.436 153.082 219.988 153.082V152.082V151.082ZM220.997 153.082C221.549 153.082 221.997 152.634 221.997 152.082C221.997 151.53 221.549 151.082 220.997 151.082V152.082V153.082ZM225.033 151.082C224.48 151.082 224.033 151.53 224.033 152.082C224.033 152.634 224.48 153.082 225.033 153.082V152.082V151.082ZM226.042 153.082C226.594 153.082 227.042 152.634 227.042 152.082C227.042 151.53 226.594 151.082 226.042 151.082V152.082V153.082ZM230.077 151.082C229.525 151.082 229.077 151.53 229.077 152.082C229.077 152.634 229.525 153.082 230.077 153.082V152.082V151.082ZM231.145 153.073C231.697 153.056 232.131 152.595 232.114 152.043C232.097 151.491 231.635 151.057 231.083 151.074L231.114 152.074L231.145 153.073ZM235.025 150.454C234.495 150.608 234.189 151.162 234.343 151.693C234.497 152.223 235.052 152.529 235.582 152.375L235.304 151.414L235.025 150.454ZM236.653 152.027C237.173 151.84 237.442 151.267 237.255 150.747C237.068 150.228 236.495 149.958 235.975 150.145L236.314 151.086L236.653 152.027ZM239.529 148.332C239.072 148.642 238.954 149.264 239.265 149.721C239.576 150.177 240.198 150.296 240.655 149.985L240.092 149.158L239.529 148.332ZM241.565 149.322C242.001 148.984 242.08 148.355 241.741 147.919C241.402 147.483 240.774 147.404 240.338 147.743L240.951 148.533L241.565 149.322ZM243.161 144.92C242.822 145.356 242.901 145.985 243.337 146.323C243.773 146.662 244.401 146.583 244.74 146.147L243.95 145.534L243.161 144.92ZM245.402 145.237C245.713 144.78 245.595 144.158 245.139 143.847C244.682 143.537 244.06 143.655 243.749 144.111L244.576 144.674L245.402 145.237ZM245.563 140.558C245.376 141.077 245.645 141.65 246.165 141.837C246.685 142.025 247.258 141.755 247.445 141.235L246.504 140.897L245.563 140.558ZM247.792 140.164C247.946 139.634 247.641 139.079 247.111 138.925C246.58 138.772 246.025 139.077 245.872 139.607L246.832 139.886L247.792 140.164ZM246.492 135.666C246.475 136.218 246.909 136.679 247.461 136.696C248.013 136.713 248.474 136.28 248.491 135.728L247.491 135.697L246.492 135.666ZM176.807 165.5H177.807C177.807 165.336 177.81 165.173 177.816 165.011L176.817 164.972L175.818 164.934C175.81 165.122 175.807 165.31 175.807 165.5H176.807ZM177.633 160.855L178.571 161.201C178.684 160.895 178.808 160.594 178.944 160.3L178.036 159.881L177.128 159.462C176.971 159.804 176.826 160.153 176.694 160.508L177.633 160.855ZM180.371 156.392L181.106 157.071C181.326 156.832 181.557 156.602 181.795 156.381L181.116 155.647L180.438 154.913C180.16 155.169 179.893 155.436 179.637 155.713L180.371 156.392ZM184.606 153.312L185.025 154.22C185.319 154.084 185.619 153.959 185.925 153.846L185.579 152.908L185.233 151.97C184.877 152.101 184.528 152.246 184.186 152.404L184.606 153.312ZM189.697 152.092L189.736 153.091C189.898 153.085 190.061 153.082 190.225 153.082V152.082V151.082C190.035 151.082 189.846 151.086 189.658 151.093L189.697 152.092ZM190.225 152.082V153.082H190.729V152.082V151.082H190.225V152.082ZM194.765 152.082V153.082H195.774V152.082V151.082H194.765V152.082ZM199.809 152.082V153.082H200.818V152.082V151.082H199.809V152.082ZM204.854 152.082V153.082H205.863V152.082V151.082H204.854V152.082ZM209.899 152.082V153.082H210.908V152.082V151.082H209.899V152.082ZM214.943 152.082V153.082H215.952V152.082V151.082H214.943V152.082ZM219.988 152.082V153.082H220.997V152.082V151.082H219.988V152.082ZM225.033 152.082V153.082H226.042V152.082V151.082H225.033V152.082ZM230.077 152.082V153.082H230.582V152.082V151.082H230.077V152.082ZM230.582 152.082V153.082C230.77 153.082 230.958 153.079 231.145 153.073L231.114 152.074L231.083 151.074C230.917 151.079 230.75 151.082 230.582 151.082V152.082ZM235.304 151.414L235.582 152.375C235.944 152.27 236.301 152.154 236.653 152.027L236.314 151.086L235.975 150.145C235.663 150.258 235.346 150.361 235.025 150.454L235.304 151.414ZM240.092 149.158L240.655 149.985C240.965 149.773 241.269 149.552 241.565 149.322L240.951 148.533L240.338 147.743C240.075 147.947 239.805 148.144 239.529 148.332L240.092 149.158ZM243.95 145.534L244.74 146.147C244.97 145.851 245.191 145.547 245.402 145.237L244.576 144.674L243.749 144.111C243.561 144.387 243.365 144.657 243.161 144.92L243.95 145.534ZM246.504 140.897L247.445 141.235C247.571 140.883 247.687 140.526 247.792 140.164L246.832 139.886L245.872 139.607C245.778 139.928 245.675 140.245 245.563 140.558L246.504 140.897ZM247.491 135.697L248.491 135.728C248.497 135.54 248.5 135.353 248.5 135.164H247.5H246.5C246.5 135.332 246.497 135.499 246.492 135.666L247.491 135.697Z" fill="black"/>
<path d="M248.5 135.164C248.5 134.612 248.052 134.164 247.5 134.164C246.948 134.164 246.5 134.612 246.5 135.164H247.5H248.5ZM320.194 165.5C320.194 166.052 320.641 166.5 321.194 166.5C321.746 166.5 322.194 166.052 322.194 165.5H321.194H320.194ZM246.509 135.728C246.526 136.28 246.987 136.713 247.539 136.696C248.091 136.679 248.525 136.218 248.508 135.666L247.508 135.697L246.509 135.728ZM249.128 139.607C248.974 139.077 248.42 138.772 247.889 138.926C247.359 139.079 247.053 139.634 247.207 140.165L248.168 139.886L249.128 139.607ZM247.555 141.235C247.742 141.755 248.315 142.025 248.835 141.837C249.354 141.65 249.624 141.077 249.437 140.558L248.496 140.897L247.555 141.235ZM251.251 144.111C250.94 143.655 250.318 143.537 249.861 143.847C249.405 144.158 249.287 144.78 249.597 145.237L250.424 144.674L251.251 144.111ZM250.26 146.147C250.599 146.583 251.227 146.662 251.663 146.323C252.099 145.985 252.178 145.356 251.839 144.92L251.049 145.534L250.26 146.147ZM254.662 147.743C254.226 147.404 253.598 147.483 253.259 147.919C252.92 148.355 252.999 148.984 253.435 149.322L254.048 148.533L254.662 147.743ZM254.345 149.985C254.802 150.296 255.424 150.177 255.735 149.721C256.045 149.264 255.927 148.642 255.471 148.332L254.908 149.158L254.345 149.985ZM259.024 150.145C258.505 149.958 257.932 150.228 257.745 150.747C257.558 151.267 257.827 151.84 258.347 152.027L258.686 151.086L259.024 150.145ZM259.418 152.375C259.948 152.529 260.503 152.223 260.657 151.693C260.81 151.162 260.505 150.608 259.975 150.454L259.696 151.414L259.418 152.375ZM263.916 151.074C263.364 151.057 262.903 151.491 262.886 152.043C262.869 152.595 263.302 153.056 263.854 153.073L263.885 152.074L263.916 151.074ZM264.9 153.082C265.452 153.082 265.9 152.634 265.9 152.082C265.9 151.53 265.452 151.082 264.9 151.082V152.082V153.082ZM268.754 151.082C268.201 151.082 267.754 151.53 267.754 152.082C267.754 152.634 268.201 153.082 268.754 153.082V152.082V151.082ZM269.717 153.082C270.27 153.082 270.717 152.634 270.717 152.082C270.717 151.53 270.27 151.082 269.717 151.082V152.082V153.082ZM273.571 151.082C273.019 151.082 272.571 151.53 272.571 152.082C272.571 152.634 273.019 153.082 273.571 153.082V152.082V151.082ZM274.535 153.082C275.087 153.082 275.535 152.634 275.535 152.082C275.535 151.53 275.087 151.082 274.535 151.082V152.082V153.082ZM278.389 151.082C277.837 151.082 277.389 151.53 277.389 152.082C277.389 152.634 277.837 153.082 278.389 153.082V152.082V151.082ZM279.352 153.082C279.905 153.082 280.352 152.634 280.352 152.082C280.352 151.53 279.905 151.082 279.352 151.082V152.082V153.082ZM283.206 151.082C282.654 151.082 282.206 151.53 282.206 152.082C282.206 152.634 282.654 153.082 283.206 153.082V152.082V151.082ZM284.17 153.082C284.722 153.082 285.17 152.634 285.17 152.082C285.17 151.53 284.722 151.082 284.17 151.082V152.082V153.082ZM288.024 151.082C287.472 151.082 287.024 151.53 287.024 152.082C287.024 152.634 287.472 153.082 288.024 153.082V152.082V151.082ZM288.987 153.082C289.54 153.082 289.987 152.634 289.987 152.082C289.987 151.53 289.54 151.082 288.987 151.082V152.082V153.082ZM292.841 151.082C292.289 151.082 291.841 151.53 291.841 152.082C291.841 152.634 292.289 153.082 292.841 153.082V152.082V151.082ZM293.805 153.082C294.357 153.082 294.805 152.634 294.805 152.082C294.805 151.53 294.357 151.082 293.805 151.082V152.082V153.082ZM297.659 151.082C297.107 151.082 296.659 151.53 296.659 152.082C296.659 152.634 297.107 153.082 297.659 153.082V152.082V151.082ZM298.622 153.082C299.175 153.082 299.622 152.634 299.622 152.082C299.622 151.53 299.175 151.082 298.622 151.082V152.082V153.082ZM302.476 151.082C301.924 151.082 301.476 151.53 301.476 152.082C301.476 152.634 301.924 153.082 302.476 153.082V152.082V151.082ZM303.44 153.082C303.992 153.082 304.44 152.634 304.44 152.082C304.44 151.53 303.992 151.082 303.44 151.082V152.082V153.082ZM307.294 151.082C306.742 151.082 306.294 151.53 306.294 152.082C306.294 152.634 306.742 153.082 307.294 153.082V152.082V151.082ZM308.265 153.091C308.817 153.113 309.281 152.683 309.303 152.131C309.324 151.579 308.894 151.114 308.342 151.093L308.303 152.092L308.265 153.091ZM312.767 151.97C312.249 151.779 311.674 152.044 311.483 152.562C311.292 153.08 311.557 153.655 312.075 153.846L312.421 152.908L312.767 151.97ZM312.975 154.22C313.477 154.451 314.071 154.232 314.303 153.731C314.534 153.23 314.315 152.635 313.814 152.404L313.395 153.312L312.975 154.22ZM317.563 154.913C317.157 154.538 316.525 154.562 316.15 154.968C315.775 155.373 315.799 156.006 316.205 156.381L316.884 155.647L317.563 154.913ZM316.895 157.071C317.27 157.476 317.902 157.501 318.308 157.126C318.713 156.751 318.738 156.118 318.363 155.713L317.629 156.392L316.895 157.071ZM320.872 159.462C320.64 158.96 320.046 158.742 319.545 158.973C319.043 159.205 318.825 159.799 319.056 160.3L319.964 159.881L320.872 159.462ZM319.43 161.201C319.621 161.719 320.196 161.984 320.714 161.793C321.232 161.601 321.497 161.026 321.306 160.508L320.368 160.855L319.43 161.201ZM322.183 164.934C322.161 164.382 321.697 163.952 321.145 163.973C320.593 163.995 320.163 164.459 320.184 165.011L321.184 164.972L322.183 164.934ZM247.5 135.164H246.5C246.5 135.353 246.503 135.54 246.509 135.728L247.508 135.697L248.508 135.666C248.503 135.499 248.5 135.332 248.5 135.164H247.5ZM248.168 139.886L247.207 140.165C247.312 140.526 247.428 140.883 247.555 141.235L248.496 140.897L249.437 140.558C249.324 140.245 249.221 139.928 249.128 139.607L248.168 139.886ZM250.424 144.674L249.597 145.237C249.809 145.547 250.03 145.851 250.26 146.147L251.049 145.534L251.839 144.92C251.635 144.657 251.438 144.387 251.251 144.111L250.424 144.674ZM254.048 148.533L253.435 149.322C253.731 149.552 254.035 149.773 254.345 149.985L254.908 149.158L255.471 148.332C255.195 148.144 254.925 147.947 254.662 147.743L254.048 148.533ZM258.686 151.086L258.347 152.027C258.699 152.154 259.056 152.27 259.418 152.375L259.696 151.414L259.975 150.454C259.654 150.361 259.337 150.258 259.024 150.145L258.686 151.086ZM263.885 152.074L263.854 153.073C264.042 153.079 264.229 153.082 264.418 153.082V152.082V151.082C264.25 151.082 264.083 151.079 263.916 151.074L263.885 152.074ZM264.418 152.082V153.082H264.9V152.082V151.082H264.418V152.082ZM268.754 152.082V153.082H269.717V152.082V151.082H268.754V152.082ZM273.571 152.082V153.082H274.535V152.082V151.082H273.571V152.082ZM278.389 152.082V153.082H279.352V152.082V151.082H278.389V152.082ZM283.206 152.082V153.082H284.17V152.082V151.082H283.206V152.082ZM288.024 152.082V153.082H288.987V152.082V151.082H288.024V152.082ZM292.841 152.082V153.082H293.805V152.082V151.082H292.841V152.082ZM297.659 152.082V153.082H298.622V152.082V151.082H297.659V152.082ZM302.476 152.082V153.082H303.44V152.082V151.082H302.476V152.082ZM307.294 152.082V153.082H307.776V152.082V151.082H307.294V152.082ZM307.776 152.082V153.082C307.94 153.082 308.103 153.085 308.265 153.091L308.303 152.092L308.342 151.093C308.154 151.086 307.965 151.082 307.776 151.082V152.082ZM312.421 152.908L312.075 153.846C312.381 153.959 312.681 154.084 312.975 154.22L313.395 153.312L313.814 152.404C313.472 152.246 313.123 152.101 312.767 151.97L312.421 152.908ZM316.884 155.647L316.205 156.381C316.444 156.602 316.674 156.832 316.895 157.071L317.629 156.392L318.363 155.713C318.107 155.436 317.84 155.169 317.563 154.913L316.884 155.647ZM319.964 159.881L319.056 160.3C319.192 160.594 319.317 160.895 319.43 161.201L320.368 160.855L321.306 160.508C321.175 160.153 321.03 159.804 320.872 159.462L319.964 159.881ZM321.184 164.972L320.184 165.011C320.191 165.173 320.194 165.336 320.194 165.5H321.194H322.194C322.194 165.31 322.19 165.122 322.183 164.934L321.184 164.972Z" fill="black"/>
<defs>
<clipPath id="clip0_33873_28663">
<rect width="95.5282" height="95.5282" fill="white" transform="translate(129.043 184.313)"/>
</clipPath>
<clipPath id="clip1_33873_28663">
<rect width="96.2574" height="96.2574" fill="white" transform="translate(276.346 184.313)"/>
</clipPath>
</defs>
</svg>
