<svg width="473" height="305" viewBox="0 0 473 305" fill="none" xmlns="http://www.w3.org/2000/svg">
<rect width="473" height="305" fill="#CCE2D8"/>
<path d="M232.132 140.128C227.883 137.676 221.444 137.408 217.764 139.534L97.7288 208.833C94.0489 210.959 94.5089 214.675 98.7611 217.131L238.959 298.074C243.208 300.53 249.648 300.794 253.328 298.672L373.363 229.369C377.042 227.243 376.582 223.527 372.33 221.071L232.132 140.128Z" fill="#46A569"/>
<path d="M95.2441 206.323V212.437L100.224 215.403L101.709 207.797L95.2441 206.323ZM375.847 219.652V225.766L369.9 228.852L367.955 222.108L375.847 219.652Z" fill="#BBC6E6"/>
<path d="M232.132 134.014C227.883 131.562 221.444 131.294 217.764 133.42L97.7288 202.723C94.0489 204.845 94.5089 208.565 98.7611 211.017L238.959 291.96C243.208 294.416 249.648 294.68 253.328 292.558L373.363 223.256C377.042 221.129 376.582 217.413 372.33 214.958L232.132 134.014Z" fill="#F3F5FB"/>
<path d="M197.101 161.335C196.142 160.781 194.693 160.723 193.863 161.201L166.829 176.808C166 177.286 166.105 178.123 167.061 178.677L296.966 253.676C297.922 254.231 299.371 254.289 300.2 253.81L327.234 238.203C328.064 237.722 327.959 236.885 327.003 236.335L197.101 161.335Z" fill="#A1CCB4"/>
<path d="M344.879 215.541C343.857 216.131 342.202 216.131 341.181 215.541C340.159 214.954 340.159 213.994 341.181 213.404C342.202 212.817 343.857 212.817 344.879 213.404C345.9 213.994 345.9 214.954 344.879 215.541ZM323.908 227.653C322.886 228.239 321.227 228.239 320.206 227.653C319.185 227.062 319.185 226.106 320.206 225.516C321.227 224.925 322.886 224.925 323.908 225.516C324.925 226.106 324.925 227.062 323.908 227.653ZM302.933 239.761C301.912 240.351 300.253 240.351 299.231 239.761C298.21 239.17 298.21 238.214 299.231 237.624C300.253 237.034 301.912 237.034 302.933 237.624C303.954 238.214 303.954 239.17 302.933 239.761ZM281.958 251.869C280.937 252.459 279.278 252.459 278.257 251.869C277.239 251.279 277.239 250.322 278.257 249.732C279.278 249.145 280.937 249.145 281.958 249.732C282.98 250.322 282.98 251.279 281.958 251.869ZM260.984 263.981C259.962 264.568 258.307 264.568 257.286 263.981C256.264 263.39 256.264 262.431 257.286 261.844C258.307 261.253 259.962 261.253 260.984 261.844C262.005 262.431 262.005 263.39 260.984 263.981ZM240.009 276.089C238.991 276.679 237.332 276.679 236.311 276.089C235.29 275.499 235.29 274.542 236.311 273.952C237.332 273.362 238.991 273.362 240.009 273.952C241.03 274.542 241.03 275.499 240.009 276.089Z" fill="#C4CBDC"/>
<path d="M199.817 143.779L355.415 233.614L355.904 233.335L200.306 143.497L199.817 143.779ZM178.969 155.818L334.568 245.654L335.057 245.371L179.454 155.536L178.969 155.818Z" fill="#DEE3F1"/>
<path d="M348.125 201.039L214.754 278.041L215.243 278.324L348.614 201.321L348.125 201.039Z" fill="#DEE3F1"/>
<path d="M225.004 146.329C223.982 146.919 222.323 146.919 221.302 146.329C220.281 145.742 220.281 144.782 221.302 144.192C222.323 143.605 223.982 143.605 225.004 144.192C226.025 144.782 226.025 145.742 225.004 146.329ZM204.029 158.441C203.007 159.028 201.349 159.028 200.327 158.441C199.306 157.85 199.306 156.894 200.327 156.304C201.349 155.713 203.007 155.713 204.029 156.304C205.05 156.894 205.05 157.85 204.029 158.441ZM183.054 170.549C182.033 171.139 180.374 171.139 179.356 170.549C178.335 169.959 178.335 169.002 179.356 168.412C180.374 167.822 182.033 167.822 183.054 168.412C184.076 169.002 184.076 169.959 183.054 170.549ZM162.079 182.657C161.058 183.247 159.403 183.247 158.381 182.657C157.36 182.067 157.36 181.111 158.381 180.52C159.403 179.933 161.058 179.933 162.079 180.52C163.101 181.111 163.101 182.067 162.079 182.657ZM141.105 194.765C140.087 195.356 138.428 195.356 137.407 194.765C136.385 194.179 136.385 193.219 137.407 192.632C138.428 192.042 140.087 192.042 141.105 192.632C142.126 193.219 142.126 194.179 141.105 194.765ZM120.134 206.877C119.112 207.467 117.453 207.467 116.432 206.877C115.411 206.287 115.411 205.33 116.432 204.74C117.453 204.15 119.112 204.15 120.134 204.74C121.155 205.33 121.155 206.287 120.134 206.877ZM244.982 157.865C243.961 158.455 242.302 158.455 241.281 157.865C240.259 157.274 240.259 156.318 241.281 155.728C242.302 155.141 243.961 155.141 244.982 155.728C246.004 156.318 246.004 157.274 244.982 157.865ZM224.008 169.973C222.986 170.563 221.327 170.563 220.309 169.973C219.288 169.386 219.288 168.426 220.309 167.84C221.327 167.249 222.986 167.249 224.008 167.84C225.029 168.426 225.029 169.386 224.008 169.973ZM203.033 182.085C202.011 182.672 200.356 182.672 199.335 182.085C198.313 181.494 198.313 180.538 199.335 179.948C200.356 179.357 202.011 179.357 203.033 179.948C204.054 180.538 204.054 181.494 203.033 182.085ZM182.062 194.193C181.04 194.783 179.381 194.783 178.36 194.193C177.339 193.603 177.339 192.646 178.36 192.056C179.381 191.466 181.04 191.466 182.062 192.056C183.08 192.646 183.08 193.603 182.062 194.193ZM161.087 206.301C160.066 206.892 158.407 206.892 157.385 206.301C156.364 205.714 156.364 204.755 157.385 204.168C158.407 203.577 160.066 203.577 161.087 204.168C162.108 204.755 162.108 205.714 161.087 206.301ZM140.112 218.413C139.091 219 137.432 219 136.411 218.413C135.393 217.823 135.393 216.866 136.411 216.276C137.432 215.686 139.091 215.686 140.112 216.276C141.134 216.866 141.134 217.823 140.112 218.413ZM264.961 169.401C263.939 169.991 262.284 169.991 261.263 169.401C260.241 168.81 260.241 167.854 261.263 167.264C262.284 166.673 263.939 166.673 264.961 167.264C265.982 167.854 265.982 168.81 264.961 169.401ZM243.986 181.509C242.968 182.099 241.31 182.099 240.288 181.509C239.267 180.919 239.267 179.962 240.288 179.372C241.31 178.785 242.968 178.785 243.986 179.372C245.008 179.962 245.008 180.919 243.986 181.509ZM223.015 193.621C221.994 194.207 220.335 194.207 219.313 193.621C218.292 193.03 218.292 192.074 219.313 191.484C220.335 190.893 221.994 190.893 223.015 191.484C224.036 192.074 224.036 193.03 223.015 193.621ZM202.04 205.729C201.019 206.319 199.36 206.319 198.339 205.729C197.317 205.139 197.317 204.182 198.339 203.592C199.36 203.002 201.019 203.002 202.04 203.592C203.062 204.182 203.062 205.139 202.04 205.729ZM181.066 217.837C180.044 218.427 178.385 218.427 177.368 217.837C176.346 217.247 176.346 216.29 177.368 215.7C178.385 215.113 180.044 215.113 181.066 215.7C182.087 216.29 182.087 217.247 181.066 217.837ZM160.091 229.945C159.07 230.536 157.414 230.536 156.393 229.945C155.372 229.358 155.372 228.399 156.393 227.812C157.414 227.222 159.07 227.222 160.091 227.812C161.112 228.399 161.112 229.358 160.091 229.945ZM284.94 180.937C283.922 181.527 282.263 181.527 281.241 180.937C280.22 180.346 280.22 179.39 281.241 178.8C282.263 178.209 283.922 178.209 284.94 178.8C285.961 179.39 285.961 180.346 284.94 180.937ZM263.968 193.045C262.947 193.635 261.288 193.635 260.267 193.045C259.245 192.454 259.245 191.498 260.267 190.908C261.288 190.321 262.947 190.321 263.968 190.908C264.99 191.498 264.99 192.454 263.968 193.045ZM242.994 205.153C241.972 205.743 240.314 205.743 239.292 205.153C238.271 204.566 238.271 203.606 239.292 203.02C240.314 202.429 241.972 202.429 242.994 203.02C244.015 203.606 244.015 204.566 242.994 205.153ZM222.019 217.265C220.998 217.852 219.342 217.852 218.321 217.265C217.3 216.674 217.3 215.718 218.321 215.128C219.342 214.537 220.998 214.537 222.019 215.128C223.04 215.718 223.04 216.674 222.019 217.265ZM201.044 229.373C200.023 229.963 198.368 229.963 197.346 229.373C196.325 228.783 196.325 227.826 197.346 227.236C198.368 226.646 200.023 226.646 201.044 227.236C202.066 227.826 202.066 228.783 201.044 229.373ZM180.073 241.481C179.052 242.072 177.393 242.072 176.372 241.481C175.35 240.894 175.35 239.935 176.372 239.348C177.393 238.757 179.052 238.757 180.073 239.348C181.091 239.935 181.091 240.894 180.073 241.481ZM304.922 192.473C303.9 193.059 302.242 193.059 301.22 192.473C300.199 191.882 300.199 190.926 301.22 190.336C302.242 189.745 303.9 189.745 304.922 190.336C305.943 190.926 305.943 191.882 304.922 192.473ZM283.947 204.581C282.926 205.171 281.267 205.171 280.245 204.581C279.228 203.99 279.228 203.034 280.245 202.444C281.267 201.853 282.926 201.853 283.947 202.444C284.968 203.034 284.968 203.99 283.947 204.581ZM262.972 216.689C261.951 217.279 260.296 217.279 259.274 216.689C258.253 216.099 258.253 215.142 259.274 214.552C260.296 213.965 261.951 213.965 262.972 214.552C263.994 215.142 263.994 216.099 262.972 216.689ZM241.998 228.801C240.98 229.387 239.321 229.387 238.3 228.801C237.278 228.21 237.278 227.251 238.3 226.664C239.321 226.073 240.98 226.073 241.998 226.664C243.019 227.251 243.019 228.21 241.998 228.801ZM221.027 240.909C220.005 241.499 218.346 241.499 217.325 240.909C216.304 240.318 216.304 239.362 217.325 238.772C218.346 238.182 220.005 238.182 221.027 238.772C222.048 239.362 222.048 240.318 221.027 240.909ZM200.052 253.017C199.031 253.607 197.372 253.607 196.35 253.017C195.329 252.427 195.329 251.47 196.35 250.88C197.372 250.293 199.031 250.293 200.052 250.88C201.073 251.47 201.073 252.427 200.052 253.017ZM324.9 204.005C323.879 204.595 322.22 204.595 321.202 204.005C320.181 203.418 320.181 202.458 321.202 201.872C322.22 201.281 323.879 201.281 324.9 201.872C325.922 202.458 325.922 203.418 324.9 204.005ZM303.926 216.117C302.904 216.703 301.249 216.703 300.228 216.117C299.206 215.526 299.206 214.57 300.228 213.98C301.249 213.389 302.904 213.389 303.926 213.98C304.947 214.57 304.947 215.526 303.926 216.117ZM282.955 228.225C281.933 228.815 280.274 228.815 279.253 228.225C278.232 227.634 278.232 226.678 279.253 226.088C280.274 225.501 281.933 225.501 282.955 226.088C283.972 226.678 283.972 227.634 282.955 228.225ZM261.98 240.333C260.959 240.923 259.3 240.923 258.278 240.333C257.257 239.746 257.257 238.786 258.278 238.2C259.3 237.609 260.959 237.609 261.98 238.2C263.001 238.786 263.001 239.746 261.98 240.333ZM241.005 252.445C239.984 253.032 238.325 253.032 237.304 252.445C236.286 251.854 236.286 250.898 237.304 250.308C238.325 249.717 239.984 249.717 241.005 250.308C242.027 250.898 242.027 251.854 241.005 252.445ZM220.031 264.553C219.009 265.143 217.354 265.143 216.333 264.553C215.311 263.963 215.311 263.006 216.333 262.416C217.354 261.826 219.009 261.826 220.031 262.416C221.052 263.006 221.052 263.963 220.031 264.553Z" fill="#C4CBDC"/>
<path d="M246.67 142.464L113.299 219.467L113.788 219.746L247.159 142.747L246.67 142.464Z" fill="#DEE3F1"/>
<path d="M158.117 167.854L313.716 257.689L314.205 257.411L158.606 167.572L158.117 167.854ZM137.27 179.894L292.868 269.729L293.357 269.446L137.758 179.611L137.27 179.894ZM116.418 191.929L272.02 281.765L272.506 281.482L116.907 191.647L116.418 191.929Z" fill="#DEE3F1"/>
<path d="M266.961 154.178L133.59 231.18L134.079 231.463L267.45 154.46L266.961 154.178ZM287.255 165.895L153.884 242.894L154.369 243.176L287.74 166.174L287.255 165.895ZM307.545 177.608L174.174 254.611L174.663 254.893L308.034 177.891L307.545 177.608ZM327.835 189.321L194.464 266.324L194.953 266.607L328.324 189.604L327.835 189.321Z" fill="#DEE3F1"/>
<path d="M306.414 84.6871C306.414 83.2709 305.552 81.6229 304.491 81.0108L174.97 6.23209C173.905 5.61636 173.043 6.26831 173.043 7.68449V130.889C173.043 132.305 173.905 133.953 174.97 134.569L304.491 209.347C305.552 209.959 306.414 209.307 306.414 207.891V84.6871Z" fill="#A1CCB4"/>
<path d="M284.187 97.5235C284.187 96.1074 283.325 94.4557 282.264 93.8436L152.74 19.0649C151.678 18.4528 150.816 19.1048 150.816 20.5209V143.725C150.816 145.141 151.678 146.789 152.74 147.401L282.264 222.18C283.325 222.796 284.187 222.144 284.187 220.724V97.5235Z" fill="#008938"/>
<path d="M187.738 114.126L185.67 115.05L197.376 138.959L199.444 138.035L187.738 114.126Z" fill="#F2F2F2"/>
<path d="M199.687 108.791L185.67 115.05L187.369 118.516L201.382 112.254L199.687 108.791Z" fill="#F2F2F2"/>
<path d="M230.937 144.844L233.005 143.92L221.299 120.016L219.23 120.939L230.937 144.844Z" fill="#F2F2F2"/>
<path d="M218.988 150.183L233.005 143.92L231.306 140.454L217.293 146.716L218.988 150.183Z" fill="#F2F2F2"/>
<path d="M284.187 97.6213C284.187 96.1508 283.293 94.4376 282.188 93.8001L152.606 18.9852C151.617 18.4166 150.816 19.0214 150.816 20.3398V31.9844L284.187 108.987V97.6213Z" fill="#005A30"/>
<path d="M196.897 75.8498C196.897 74.6871 196.19 73.3398 195.321 72.8363L159.41 52.1043C158.54 51.6009 157.834 52.1369 157.834 53.2959C157.834 54.4549 158.54 55.8059 159.41 56.3094L195.321 77.0378C196.19 77.5412 196.897 77.0088 196.897 75.8498ZM212.16 84.6584C212.16 83.4993 211.453 82.152 210.584 81.6485L200.924 76.0707C200.055 75.5709 199.349 76.1033 199.349 77.2623C199.349 78.425 200.055 79.7724 200.924 80.2758L210.584 85.85C211.453 86.3534 212.16 85.821 212.16 84.6584ZM216.709 118.712L215.173 116.191L201.953 140.396L203.492 142.917L216.709 118.712Z" fill="#F2F2F2"/>
</svg>
